<svg xmlns="http://www.w3.org/2000/svg" xmlns:xlink="http://www.w3.org/1999/xlink" version="1.1" width="2400" enable-background="new 0 0 2400 700" xml:space="preserve" height="700" style=""><rect id="backgroundrect" width="100%" height="100%" x="0" y="0" fill="none" stroke="none"/>
















































































































































<g class="currentLayer" style=""><title>Layer 1</title><path fill="#473080" opacity="1.000000" stroke="none" d=" M1028.000000,241.041809   C1026.813599,230.172913 1025.627197,219.765137 1024.400635,209.004211   C1033.466187,209.004211 1042.614868,208.890442 1051.752686,209.151825   C1052.863525,209.183609 1054.749756,211.153671 1054.867798,212.362854   C1056.079956,224.789169 1056.915771,237.251434 1058.024536,249.688705   C1059.611938,267.496735 1061.321777,285.293976 1063.012817,303.092621   C1064.315308,316.802826 1065.604858,330.514771 1067.019653,344.213623   C1068.280273,356.420197 1069.699341,368.610382 1071.080444,380.804199   C1071.125122,381.198517 1071.520752,381.553101 1072.360229,382.902435   C1073.338257,376.650787 1074.189331,371.342987 1074.996216,366.028473   C1077.319946,350.723846 1079.698730,335.427063 1081.915771,320.106934   C1083.715698,307.668488 1085.312622,295.200653 1087.000732,282.746033   C1088.009277,275.305817 1088.900391,267.845306 1090.173218,260.450562   C1090.343140,259.463226 1092.433228,258.146149 1093.666870,258.110229   C1101.159058,257.892059 1108.667725,257.837616 1116.152832,258.154388   C1117.469849,258.210144 1119.633423,260.137390 1119.828735,261.437347   C1121.744995,274.190735 1123.207764,287.011414 1125.037842,299.778839   C1126.863525,312.516449 1129.069702,325.199432 1130.908203,337.935394   C1132.425171,348.443085 1133.586914,359.001617 1135.032349,369.520294   C1135.607178,373.703125 1136.522217,377.839172 1137.282349,381.996521   C1137.770508,381.960114 1138.258667,381.923706 1138.746948,381.887268   C1144.236084,324.411316 1149.725342,266.935364 1155.235718,209.238159   C1165.124390,209.238159 1174.864258,209.238159 1185.233154,209.238159   C1177.858765,274.609070 1170.516724,339.694336 1163.166626,404.850433   C1148.192993,404.850433 1133.906128,404.850433 1119.543335,404.850433   C1114.745117,365.627380 1109.961060,326.519470 1105.176880,287.411560   C1104.911621,287.455505 1104.646362,287.499481 1104.381104,287.543457   C1099.602173,326.603943 1094.823364,365.664459 1090.031616,404.829346   C1075.230957,404.829346 1060.945068,404.829346 1046.371216,404.829346   C1045.578247,397.679871 1044.825439,390.561584 1043.991455,383.452850   C1042.734497,372.738342 1041.380737,362.035156 1040.145874,351.318207   C1039.357910,344.481171 1038.774658,337.620575 1037.985229,330.783752   C1036.729004,319.905060 1035.309082,309.045044 1034.085815,298.162842   C1032.969238,288.229706 1032.052856,278.274231 1030.990723,268.334778   C1030.034424,259.386505 1029.000000,250.446548 1028.000000,241.041809  z" id="svg_3"/><path fill="#473080" opacity="1.000000" stroke="none" d=" M1209.000000,354.000000   C1209.000000,305.528564 1209.000000,257.557098 1209.000000,209.276382   C1210.553589,209.171768 1211.828247,209.012039 1213.103027,209.011108   C1234.269409,208.995605 1255.456787,208.422058 1276.595337,209.188065   C1292.690674,209.771317 1307.770752,214.232117 1319.320435,226.755524   C1325.302856,233.242249 1328.536133,241.044296 1329.582397,249.465210   C1330.691895,258.394684 1331.013062,267.533234 1326.988525,276.104095   C1322.366333,285.948059 1314.496216,292.306152 1304.544922,295.880463   C1297.773438,298.312683 1290.623291,299.690887 1285.106689,301.152466   C1291.862915,302.272064 1300.065552,303.138336 1308.016724,305.050201   C1325.288452,309.203247 1337.914062,319.230560 1342.274902,336.920624   C1347.435303,357.854950 1342.968140,382.571899 1322.201050,396.228638   C1314.175293,401.506531 1304.995605,404.633087 1295.599731,404.805939   C1266.961182,405.332764 1238.306519,404.997040 1209.000000,404.997040   C1209.000000,388.017883 1209.000000,371.258942 1209.000000,354.000000  M1258.500000,378.000000   C1268.244263,377.666138 1278.110229,378.173096 1287.701538,376.783569   C1299.457153,375.080566 1308.877197,368.917206 1312.561035,356.833740   C1317.312012,341.250641 1311.591675,324.868011 1295.135254,318.717529   C1290.477539,316.976746 1285.476318,315.351410 1280.583618,315.193787   C1266.174561,314.729675 1251.740967,315.028198 1237.299316,315.028198   C1237.299316,336.282135 1237.299316,356.996368 1237.299316,378.000000   C1244.230103,378.000000 1250.865112,378.000000 1258.500000,378.000000  M1274.618286,236.908722   C1271.201416,236.605804 1267.787598,236.087906 1264.367188,236.041641   C1255.296387,235.918930 1246.222778,236.000000 1237.368408,236.000000   C1237.368408,253.766937 1237.368408,270.810699 1237.368408,286.999054   C1250.968262,286.999054 1264.330933,288.194366 1277.385864,286.700531   C1294.210938,284.775299 1303.822998,271.878571 1299.008911,254.348907   C1295.823242,242.748398 1286.626221,238.337326 1274.618286,236.908722  z" id="svg_4"/><path fill="#473080" opacity="1.000000" stroke="none" d=" M763.401978,325.996948   C761.985352,324.717896 760.532776,323.576508 760.140564,322.144653   C753.598083,298.257355 747.224731,274.323730 740.685364,250.435532   C740.111084,248.337692 738.643311,246.484421 737.590637,244.517532   C737.066650,244.753235 736.542725,244.988922 736.018799,245.224609   C736.018799,298.311737 736.018799,351.398865 736.018799,404.742065   C726.899780,404.742065 718.173096,404.742065 709.222778,404.742065   C709.222778,339.621582 709.222778,274.687531 709.222778,209.376648   C723.191467,209.376648 737.255371,209.376648 751.631165,209.376648   C758.985229,237.036697 766.402039,264.932526 773.818848,292.828369   C774.195923,292.833923 774.572937,292.839478 774.950012,292.845032   C782.388062,264.969299 789.826111,237.093567 797.284607,209.141144   C811.455322,209.141144 825.413452,209.141144 839.685913,209.141144   C839.685913,274.313232 839.685913,339.365082 839.685913,404.708740   C830.635742,404.708740 821.575317,404.708740 812.118530,404.708740   C812.118530,351.536102 812.118530,298.447906 812.118530,245.359695   C811.627258,245.231537 811.135925,245.103378 810.644653,244.975220   C806.482178,253.028305 805.304688,262.157562 802.705017,270.756622   C799.942627,279.893829 797.542542,289.141052 795.018494,298.349609   C792.536194,307.405914 790.096802,316.473969 787.513123,325.999420   C779.801392,325.999420 771.830383,325.999420 763.401978,325.996948  z" id="svg_5" class=""/><path fill="#473080" opacity="1.000000" stroke="none" d=" M1507.000000,282.824951   C1505.614868,299.619812 1501.136475,314.756927 1488.957764,326.434814   C1479.190674,335.800079 1467.164062,341.455627 1453.835205,342.806366   C1438.912720,344.318604 1423.838745,344.341461 1408.829712,344.989502   C1407.043457,345.066650 1405.250732,345.000000 1403.175537,345.000000   C1403.175537,365.021362 1403.175537,384.624176 1403.175537,404.612946   C1393.505615,404.612946 1384.111328,404.612946 1374.356689,404.612946   C1374.356689,339.792969 1374.356689,274.761322 1374.356689,209.252625   C1375.551636,209.177933 1376.974854,209.012604 1378.397949,209.011490   C1399.717407,208.994919 1421.064331,208.328400 1442.347778,209.204208   C1460.658325,209.957672 1478.287231,214.338333 1491.646606,228.282227   C1499.692017,236.679733 1504.815796,246.868195 1505.923706,258.598175   C1506.667969,266.477844 1506.667236,274.427948 1507.000000,282.824951  M1477.000000,278.377258   C1477.000000,275.713104 1477.066040,273.047058 1476.989136,270.385132   C1476.556152,255.402359 1467.404053,243.158051 1452.130127,238.809921   C1437.115845,234.535751 1421.947998,236.662369 1406.845703,236.022522   C1405.599121,235.969696 1404.339233,236.233231 1403.012085,236.356598   C1403.012085,263.236359 1403.010620,289.708038 1403.024658,316.179718   C1403.024902,316.642029 1403.212036,317.104218 1403.405762,318.000000   C1410.703003,318.000000 1417.994751,318.260681 1425.259277,317.927155   C1432.611816,317.589569 1440.103271,317.419373 1447.242554,315.850037   C1466.323242,311.655731 1475.522461,298.785980 1477.000000,278.377258  z" id="svg_6"/><path fill="#473080" opacity="1.000000" stroke="none" d=" M883.968872,309.109467   C878.287231,294.587708 872.635620,280.461395 866.987671,266.333618   C865.975403,263.801575 864.978027,261.263580 863.692200,258.017273   C873.948303,258.017273 883.686707,257.890686 893.412903,258.179047   C894.616638,258.214722 896.286499,260.254364 896.845886,261.709290   C912.114685,301.419098 927.266174,341.173920 942.458252,380.913239   C942.561035,381.181885 942.956543,381.338654 943.703491,381.941925   C946.161865,374.193787 948.711609,366.701172 950.913391,359.107666   C955.825073,342.168640 960.529297,325.169586 965.381714,308.213196   C969.877991,292.501038 974.414917,276.799988 979.081116,261.137939   C979.444824,259.916992 980.947205,258.165466 981.955383,258.141541   C991.566711,257.913544 1001.185608,258.005432 1011.364624,258.005432   C1007.746948,269.540955 1004.362366,280.494019 1000.877075,291.414917   C992.072205,319.004517 983.056702,346.528168 974.449402,374.179047   C968.907654,391.981873 963.517700,409.794281 954.910339,426.448547   C943.131531,449.239075 925.211548,463.513947 899.384949,467.026917   C888.761047,468.471985 878.137268,469.917694 866.911743,471.444946   C866.403503,461.958984 865.940247,453.314056 865.443054,444.035339   C869.811096,443.397614 874.575500,442.425507 879.386292,442.051453   C893.844421,440.927277 907.895630,438.466064 919.401062,428.808594   C926.890137,422.522400 931.775635,414.223419 935.761292,405.176453   C934.919861,405.095764 934.443542,405.017303 933.966125,405.009125   C921.330872,404.792480 921.550720,404.707916 916.997131,393.032684   C906.119385,365.142639 895.013733,337.341492 883.968872,309.109467  z" id="svg_7"/><path fill="#473080" opacity="1.000000" stroke="none" d=" M1585.873779,256.000000   C1602.417969,257.080292 1618.196411,259.357971 1631.733643,269.002655   C1643.859985,277.641998 1651.090210,289.731384 1651.801147,304.450409   C1652.890381,327.004608 1652.668213,349.622192 1652.996460,372.213013   C1653.022583,374.008484 1653.000000,375.804688 1653.000000,377.624268   C1661.577026,378.795532 1669.732666,379.909241 1677.802490,381.011230   C1677.802490,389.296082 1677.802490,396.913300 1677.802490,405.763428   C1661.985840,405.763428 1646.364624,405.763428 1629.962769,405.763428   C1629.509521,396.032135 1629.002319,385.142395 1628.494995,374.252686   C1628.144775,374.222382 1627.794556,374.192078 1627.444336,374.161774   C1626.970703,374.897919 1626.161255,375.596069 1626.072998,376.375763   C1624.182373,393.091644 1612.999512,402.073822 1598.605957,405.794830   C1583.977539,409.576477 1569.022095,409.500610 1554.634033,403.958191   C1540.647095,398.570251 1532.442871,387.090851 1530.907959,371.775635   C1529.962280,362.339752 1530.896973,353.441956 1534.629395,344.675507   C1538.046875,336.648254 1543.647827,330.762939 1551.021606,326.532104   C1561.341187,320.611115 1572.425781,317.180847 1584.446167,316.960144   C1591.044189,316.839020 1597.641479,315.987793 1604.227173,316.109955   C1609.423950,316.206360 1614.599121,317.316650 1619.791626,317.908936   C1621.052856,318.052795 1622.344360,317.930328 1623.754517,317.930328   C1624.729370,308.034485 1623.963379,298.587891 1615.737427,292.636627   C1610.556152,288.888123 1603.854980,285.999573 1597.549072,285.297180   C1583.138184,283.692017 1568.551514,283.656769 1554.035034,283.011963   C1552.078003,282.925018 1550.113892,283.000000 1548.122192,283.000000   C1549.170776,273.770111 1550.161743,265.046875 1551.189453,256.000000   C1562.782593,256.000000 1574.086182,256.000000 1585.873779,256.000000  M1561.855225,374.303741   C1566.524292,379.816315 1572.094849,383.419037 1579.687866,383.030029   C1582.854248,382.867828 1586.046997,383.176483 1589.208374,382.972107   C1610.836914,381.573853 1627.765259,366.955566 1623.557129,342.301666   C1622.150391,341.870758 1620.743408,341.029297 1619.370972,341.082520   C1605.204346,341.631836 1590.890625,339.226715 1576.884888,343.012390   C1565.325806,346.136749 1558.176147,354.243713 1559.080811,365.360504   C1559.312378,368.206879 1560.526489,370.973267 1561.855225,374.303741  z" id="svg_8"/><path fill="#473080" opacity="1.000000" stroke="none" d=" M2047.194336,383.690735   C2035.500244,367.928680 2031.502686,350.442230 2031.843994,331.363770   C2032.113403,316.305847 2033.365479,301.709656 2040.414185,288.080841   C2048.550049,272.350189 2060.748291,261.822205 2078.270996,257.923950   C2094.302002,254.357544 2110.421875,254.223770 2125.628906,260.490936   C2143.856689,268.003082 2154.630859,282.722321 2157.744873,301.897247   C2160.005615,315.817505 2159.927979,330.117493 2160.936523,344.886139   C2126.955322,344.886139 2094.110352,344.886139 2061.150635,344.886139   C2066.184326,368.918549 2084.979248,379.723877 2106.491943,381.105408   C2119.663330,381.951233 2132.524414,380.674683 2145.359131,378.065552   C2146.630859,377.807007 2148.000244,378.030975 2149.520996,378.030975   C2150.688965,385.490387 2151.879395,392.852173 2152.978271,400.227570   C2153.455811,403.431366 2152.426758,404.912537 2148.702148,405.105652   C2134.421143,405.846222 2120.165283,407.757507 2105.893311,407.826080   C2083.339111,407.934387 2063.099609,401.270203 2047.194336,383.690735  M2131.191895,321.989899   C2131.792725,321.237457 2132.924805,320.466431 2132.899414,319.735870   C2132.802979,316.977325 2132.419922,314.217621 2131.982910,311.484131   C2130.244141,300.610596 2125.156250,291.614655 2115.433350,286.272003   C2100.620605,278.132416 2080.584717,281.181030 2069.380371,295.240448   C2063.323242,302.841034 2060.718506,311.930054 2059.961670,321.998871   C2083.746582,321.998871 2106.996582,321.998871 2131.191895,321.989899  z" id="svg_9"/><path fill="#473080" opacity="1.000000" stroke="none" d=" M1984.041504,284.984802   C1977.570435,284.324890 1971.565063,283.278717 1965.532593,283.086517   C1955.544434,282.768250 1945.504517,282.485077 1935.550659,283.149811   C1926.233643,283.772003 1916.768921,284.361420 1908.414429,289.795898   C1903.264038,293.146088 1902.482910,297.869690 1903.109985,303.025269   C1903.658203,307.533905 1907.385864,309.826202 1911.348267,310.916840   C1924.143188,314.438629 1937.031860,317.618652 1949.863159,321.010437   C1960.233032,323.751587 1970.232544,327.129272 1979.223145,333.454559   C1986.641724,338.673615 1990.757568,345.816437 1991.673706,354.097290   C1992.508911,361.645874 1991.763916,369.638580 1990.209351,377.122742   C1987.488770,390.220764 1977.725952,397.737091 1965.869141,401.734070   C1957.346191,404.607117 1948.158447,406.058685 1939.155151,406.821686   C1926.790039,407.869598 1914.300903,408.227570 1901.898560,407.831268   C1891.020264,407.483673 1880.188110,405.688812 1868.967163,404.493988   C1870.174316,394.583069 1871.273804,385.557068 1872.341064,376.794708   C1884.065674,377.870453 1895.909058,378.635498 1907.661865,380.118103   C1921.868774,381.910278 1935.803223,381.171692 1949.461548,376.952606   C1959.005249,374.004608 1963.102783,366.179779 1960.009033,357.672119   C1958.006958,352.166504 1952.942871,350.488678 1948.195801,349.190948   C1933.513550,345.177399 1918.499390,342.286774 1903.996094,337.740967   C1893.576538,334.475067 1882.656860,330.899292 1876.309082,320.737183   C1871.478638,313.003937 1869.678223,304.465302 1871.877075,295.486237   C1873.285522,289.734283 1874.391602,283.617401 1877.236938,278.567810   C1883.417725,267.598755 1894.142456,262.279358 1906.008301,260.170776   C1917.891968,258.059021 1929.999756,256.530396 1942.049194,256.200806   C1957.525757,255.777451 1973.042114,256.805084 1988.648682,257.210419   C1987.687012,266.364838 1986.880371,274.411407 1985.943848,282.442871   C1985.839966,283.333496 1984.995972,284.137878 1984.041504,284.984802  z" id="svg_10"/><path fill="#473080" opacity="1.000000" stroke="none" d=" M1703.156616,282.999939   C1700.562622,283.137482 1698.838135,283.220673 1698.933472,280.071198   C1699.149414,272.934692 1699.001343,265.787170 1699.001343,258.322906   C1716.296631,258.322906 1733.353027,258.322906 1750.518921,258.322906   C1752.836548,270.786865 1753.224487,283.643463 1757.187378,295.826355   C1758.444214,290.543488 1759.677856,285.254974 1760.962036,279.978729   C1764.810425,264.166199 1780.317261,255.577606 1793.742310,255.964981   C1801.933472,256.201324 1810.154419,255.468140 1818.091431,258.520203   C1831.050415,263.503510 1837.169800,273.902985 1839.838501,286.546783   C1841.481079,294.328430 1841.711548,302.408142 1842.616455,310.724060   C1831.943237,310.724060 1822.216309,310.724060 1812.745605,310.724060   C1811.814331,305.129272 1810.937866,299.693451 1810.000244,294.268188   C1808.275269,284.284698 1798.009033,280.254608 1788.994141,281.451050   C1770.140503,283.953278 1762.866943,297.444489 1759.192871,313.593323   C1757.175171,322.461700 1756.481567,331.729797 1756.125977,340.854095   C1755.627441,353.649200 1756.000000,366.478271 1756.000000,379.767029   C1767.895630,379.767029 1779.626221,379.767029 1791.675659,379.767029   C1791.675659,388.292358 1791.675659,396.351624 1791.675659,404.707581   C1758.981567,404.707581 1726.267334,404.707581 1693.276123,404.707581   C1693.276123,396.606476 1693.276123,388.548370 1693.276123,380.188049   C1704.003052,380.188049 1714.610596,380.188049 1725.608643,380.188049   C1725.608643,347.844849 1725.608643,315.796753 1725.608643,283.000000   C1718.466553,283.000000 1711.052979,283.000000 1703.156616,282.999939  z" id="svg_11"/><path fill="#473080" opacity="1.000000" stroke="none" d=" M2247.000488,264.989807   C2248.427490,275.584778 2249.854248,285.731903 2251.281250,295.879028   C2251.699463,295.981995 2252.117920,296.084991 2252.536133,296.187958   C2253.023926,294.746063 2253.808594,293.333038 2253.951904,291.857635   C2254.973633,281.357849 2257.606689,271.270294 2266.226562,264.616821   C2271.187012,260.787994 2277.488770,257.283966 2283.536621,256.561462   C2297.553955,254.886871 2311.992920,254.474792 2323.839355,264.479065   C2330.999512,270.526215 2334.049805,279.171387 2335.802246,287.978821   C2337.262207,295.316833 2337.411621,302.915680 2338.172363,310.715698   C2328.002197,310.715698 2318.256592,310.715698 2308.695068,310.715698   C2307.449951,304.603516 2306.326172,298.575195 2304.979980,292.596893   C2302.922852,283.461212 2291.398682,279.908966 2284.885498,281.567963   C2266.341553,286.291168 2255.995605,296.976410 2254.215576,316.310455   C2252.291260,337.210266 2252.040527,358.264130 2251.035156,379.777161   C2263.904053,379.777161 2275.639404,379.777161 2287.684082,379.777161   C2287.684082,388.313293 2287.684082,396.375488 2287.684082,404.720673   C2254.941650,404.720673 2222.214844,404.720673 2189.244141,404.720673   C2189.244141,396.660187 2189.244141,388.715485 2189.244141,380.287476   C2199.837158,380.287476 2210.572754,380.287476 2221.651855,380.287476   C2221.651855,347.748444 2221.651855,315.687775 2221.651855,283.144318   C2213.018066,283.144318 2204.280029,283.144318 2195.276367,283.144318   C2195.276367,274.604248 2195.276367,266.542999 2195.276367,258.239990   C2212.012939,258.239990 2228.618408,258.239990 2245.767578,258.239990   C2246.153320,260.211487 2246.576660,262.376740 2247.000488,264.989807  z" id="svg_12"/><path fill="#FFFFFF" opacity="1.000000" stroke="none" d=" M1258.000000,378.000000   C1250.865112,378.000000 1244.230103,378.000000 1237.299316,378.000000   C1237.299316,356.996368 1237.299316,336.282135 1237.299316,315.028198   C1251.740967,315.028198 1266.174561,314.729675 1280.583618,315.193787   C1285.476318,315.351410 1290.477539,316.976746 1295.135254,318.717529   C1311.591675,324.868011 1317.312012,341.250641 1312.561035,356.833740   C1308.877197,368.917206 1299.457153,375.080566 1287.701538,376.783569   C1278.110229,378.173096 1268.244263,377.666138 1258.000000,378.000000  z" id="svg_84"/><path fill="#FFFFFF" opacity="1.000000" stroke="none" d=" M1275.062744,236.948059   C1286.626221,238.337326 1295.823242,242.748398 1299.008911,254.348907   C1303.822998,271.878571 1294.210938,284.775299 1277.385864,286.700531   C1264.330933,288.194366 1250.968262,286.999054 1237.368408,286.999054   C1237.368408,270.810699 1237.368408,253.766937 1237.368408,236.000000   C1246.222778,236.000000 1255.296387,235.918930 1264.367188,236.041641   C1267.787598,236.087906 1271.201416,236.605804 1275.062744,236.948059  z" id="svg_85"/><path fill="#FFFFFF" opacity="1.000000" stroke="none" d=" M1477.000000,278.854553   C1475.522461,298.785980 1466.323242,311.655731 1447.242554,315.850037   C1440.103271,317.419373 1432.611816,317.589569 1425.259277,317.927155   C1417.994751,318.260681 1410.703003,318.000000 1403.405762,318.000000   C1403.212036,317.104218 1403.024902,316.642029 1403.024658,316.179718   C1403.010620,289.708038 1403.012085,263.236359 1403.012085,236.356598   C1404.339233,236.233231 1405.599121,235.969696 1406.845703,236.022522   C1421.947998,236.662369 1437.115845,234.535751 1452.130127,238.809921   C1467.404053,243.158051 1476.556152,255.402359 1476.989136,270.385132   C1477.066040,273.047058 1477.000000,275.713104 1477.000000,278.854553  z" id="svg_86"/><path fill="#FFFFFF" opacity="1.000000" stroke="none" d=" M1561.572266,374.040070   C1560.526489,370.973267 1559.312378,368.206879 1559.080811,365.360504   C1558.176147,354.243713 1565.325806,346.136749 1576.884888,343.012390   C1590.890625,339.226715 1605.204346,341.631836 1619.370972,341.082520   C1620.743408,341.029297 1622.150391,341.870758 1623.557129,342.301666   C1627.765259,366.955566 1610.836914,381.573853 1589.208374,382.972107   C1586.046997,383.176483 1582.854248,382.867828 1579.687866,383.030029   C1572.094849,383.419037 1566.524292,379.816315 1561.572266,374.040070  z" id="svg_87"/><path fill="#FFFFFF" opacity="1.000000" stroke="none" d=" M2130.719238,321.994385   C2106.996582,321.998871 2083.746582,321.998871 2059.961670,321.998871   C2060.718506,311.930054 2063.323242,302.841034 2069.380371,295.240448   C2080.584717,281.181030 2100.620605,278.132416 2115.433350,286.272003   C2125.156250,291.614655 2130.244141,300.610596 2131.982910,311.484131   C2132.419922,314.217621 2132.802979,316.977325 2132.899414,319.735870   C2132.924805,320.466431 2131.792725,321.237457 2130.719238,321.994385  z" id="svg_88"/><path fill="#25025e" fill-opacity="1" stroke="none" stroke-opacity="1" stroke-width="1" stroke-dasharray="none" stroke-linejoin="miter" stroke-linecap="butt" stroke-dashoffset="" fill-rule="nonzero" opacity="1" marker-start="" marker-mid="" marker-end="" d="M111.4972071647644,333.8240222930908 C111.4972071647644,179.4041327903284 237.24858838023403,54.32402229309082 392.4972071647644,54.32402229309082 C547.7458259492948,54.32402229309082 673.4972071647644,179.4041327903284 673.4972071647644,333.8240222930908 C673.4972071647644,488.24391179585325 547.7458259492948,613.3240222930908 392.4972071647644,613.3240222930908 C237.24858838023403,613.3240222930908 111.4972071647644,488.24391179585325 111.4972071647644,333.8240222930908 z" id="svg_1" class="selected"/><path fill="#EE5A9D" opacity="1.000000" stroke="none" d="M331.7212140053711,184.10429398632812 C331.6729050053711,176.64067098632813 331.7316210053711,169.17414898632813 331.5291980053711,161.7147059863281 C331.4338300053711,158.19938698632814 332.9111560053711,157.04905698632814 336.2684860053711,157.09649698632813 C345.2254260053711,157.22309898632813 354.1866070053711,157.23068198632814 363.1433030053711,157.0970459863281 C366.5331340053711,157.04646298632815 367.9114910053711,158.23493998632813 367.8272020053711,161.7293849863281 C367.64727000537107,169.19068898632815 367.7630540053711,176.65913398632813 367.2342760053711,184.60273698632813 C357.2936020053711,185.08540298632812 347.8756640053711,185.15214498632815 338.4595570053711,185.04923998632813 C336.21028900537107,185.0246429863281 333.96715500537107,184.43438698632815 331.7212140053711,184.10429398632812 z" id="svg_99" class=""/><path fill="#EE5A9D" opacity="1.000000" stroke="none" d="M367.5899890053711,244.93052698632812 C367.6459270053711,253.66274998632815 367.7018660053711,262.3949589863281 367.2334820053711,271.6047669863281 C355.0371320053711,272.0692439863281 343.36516600537107,272.0561829863281 331.6931690053711,272.0431209863281 C331.6677780053711,263.43637098632814 331.6423570053711,254.8296199863281 332.0044480053711,245.6031799863281 C335.3369980053711,244.70448298632812 338.2857280053711,244.15650898632816 341.2263720053711,244.19695998632812 C350.0159530053711,244.31784098632812 358.8023610053711,244.66917398632813 367.5899890053711,244.93052698632812 z" id="svg_98" class=""/><path fill="#EE5A9D" opacity="1.000000" stroke="none" d="M287.6139300053711,185.0576479863281 C287.5983510053711,177.22621198632817 287.6652300053711,169.39332598632814 287.52718400537105,161.5640409863281 C287.4709090053711,158.37258898632808 288.6583180053711,157.05839498632815 291.9082870053711,157.09922798632812 C301.0723500053711,157.21433998632813 310.2396470053711,157.21203598632815 319.4038310053711,157.10221898632813 C322.6914900053711,157.06281998632812 323.7767560053711,158.47445698632816 323.7313770053711,161.6267239863281 C323.6234660053711,169.12301598632814 323.7390370053711,176.62252798632812 323.2850270053711,184.5967409863281 C311.0751420053711,185.06771898632815 299.3445360053711,185.06268298632813 287.6139300053711,185.0576479863281 z" id="svg_97" class=""/><path fill="#EE5A9D" opacity="1.000000" stroke="none" d="M287.6269150053711,229.04984998632813 C287.6332170053711,220.17280598632811 287.6395030053711,211.29574598632814 288.0850750053711,201.8063049863281 C300.1722490053711,201.24737598632817 311.8201520053711,201.30087298632816 323.4680400053711,201.35435498632813 C323.5501330053711,209.93781998632812 323.6322560053711,218.52128598632817 323.3107220053711,227.73281898632808 C321.2867660053711,228.60079998632813 319.6675640053711,229.0395659863281 318.0460130053711,229.04820298632814 C307.90659300537106,229.10217298632813 297.7666700053711,229.06011998632812 287.6269150053711,229.04984998632813 z" id="svg_96" class=""/><path fill="#EE5A9D" opacity="1.000000" stroke="none" d="M331.7067180053711,228.09213298632812 C331.6653980053711,220.52979998632816 331.5704570053711,212.96704098632813 331.6310350053711,205.40551798632816 C331.6422350053711,204.00941498632812 332.2822190053711,202.61833198632814 333.2614360053711,200.83938598632812 C340.0115890053711,200.43688998632808 346.1346970053711,200.30786098632814 352.2522810053711,200.4376529863281 C357.3374250053711,200.54559298632813 362.4161000053711,200.9578699863281 367.4976430053711,201.2353359863281 C367.5853200053711,209.8715059863281 367.67302700537107,218.50765998632812 367.31545300537107,227.76997398632813 C357.4147570053711,228.62431298632816 347.9601060053711,228.9246979863281 338.5032880053711,229.02813698632815 C336.24144700537107,229.0528719863281 333.9724350053711,228.42164598632814 331.7067180053711,228.09213298632812 z" id="svg_95" class=""/><path fill="#382C74" opacity="1.000000" stroke="none" d="M412.2889630053711,266.76904298632815 C414.5628590053711,267.76165798632815 416.8367840053711,268.7542419863281 419.3587880053711,270.4111019863281 C419.5953900053711,271.90805098632813 419.5757980053711,272.74072298632814 419.5736620053711,273.57348598632814 C419.5574570053711,279.8854979863281 419.55849500537107,279.8903199863281 425.9980390053711,279.89508098632814 C433.3269880053711,279.9005429863281 440.6559680053711,279.89602698632814 447.9849170053711,279.89617898632815 C456.5027080053711,279.89636198632815 456.5027080053711,279.89654498632814 456.4220200053711,271.15307598632813 C458.5280080053711,270.17330898632815 460.6340260053711,269.1935419863281 463.1920090053711,268.5702819863281 C463.8499980053711,269.9668879863281 464.0559920053711,271.00695798632813 464.0654220053711,272.3723759863281 C463.4559550053711,279.9014889863281 463.4559550053711,279.91052198632815 470.6260600053711,279.90100098632814 C474.7733990053711,279.89550798632814 478.9206470053711,279.8551939863281 483.3676680053711,279.9493099863281 C491.1682970053711,287.39541598632815 498.66246800537107,294.72964498632814 506.1721730053711,302.0479429863281 C512.6634750053711,308.37377898632815 516.7168810053711,308.15454098632813 522.9628220053711,301.1803889863281 C523.162468005371,301.1771239863281 523.5616380053712,301.1881409863281 523.5616380053712,301.1881409863281 C529.9512560053711,309.1724239863281 527.0537340053711,318.5738529863281 517.0854720053711,321.70635998632815 C513.1417160053711,322.9456789863282 509.6703720053711,321.8757319863281 506.6792530053711,318.7840579863282 C500.5509260053711,312.4497069863281 494.1057660053711,306.41809098632814 488.07094600537107,299.99871798632813 C485.3380660053711,297.0917049863281 482.49239300537107,295.5111079863281 478.4895550053711,296.05706798632815 C477.0200120053711,296.2575069863281 475.50020600537107,296.0894169863281 474.0033490053711,296.0894169863281 C465.73088800537107,296.08935498632815 465.8082500053711,296.07638598632815 464.42018900537107,287.78176898632813 C464.2522810053711,286.77841198632814 462.2774280053711,285.09194898632813 461.8694380053711,285.2826539863281 C459.9685590053711,286.1711119863281 457.2394030053711,287.2946779863281 456.7748340053711,288.90280198632814 C454.7192920053711,296.0177919863281 454.9644390053711,296.0891719863281 447.4688030053711,296.0892329863281 C439.9844590053711,296.0893249863281 432.4996570053711,296.03689598632815 425.0160140053711,296.1092529863281 C421.2882610053711,296.14532498632815 419.1786420053711,294.5077509863281 419.6001820053711,290.7409969863281 C420.1418080053711,285.90118398632814 417.3340680053711,284.3478089863281 412.5366440053711,283.29763798632814 C412.5366440053711,285.9667359863281 412.4940110053711,288.36273198632813 412.5467760053711,290.7566529863281 C412.6227950053711,294.20370498632815 411.1194690053711,296.0912169863281 407.5405200053711,296.08825698632813 C398.2266770053711,296.0805659863281 388.9088970053711,296.2174989863281 379.6033550053711,295.9390559863281 C378.2296370053711,295.89797998632815 375.8533860053711,293.9936829863281 375.7638780053711,292.8132319863281 C375.4546130053711,288.7344059863281 375.9516530053711,284.5944519863281 376.9200060053711,280.1883239863281 C386.8478930053711,279.9007259863281 395.9974290053711,279.9033809863281 405.1469960053711,279.9042049863281 C412.7917710053711,279.90493798632815 412.9403310053711,279.73736598632814 412.2326280053711,271.58273298632815 C412.2865520053711,269.6906429863281 412.2877730053711,268.2298579863281 412.2889630053711,266.76904298632815 z" id="svg_94" class=""/><path fill="#DE3E91" opacity="1.000000" stroke="none" d="M502.48500800537107,503.6194459863282 C499.8203350053711,504.7256159863282 497.3531720053711,506.1318659863282 494.8835980053711,506.13616898632813 C426.6982960053711,506.2550659863282 358.5127790053711,506.25634798632814 290.3274920053711,506.13754298632807 C287.6878130053711,506.1329349863281 285.0505140053711,504.7479859863281 282.1627270053711,503.68978898632815 C281.91564200537107,499.82617198632806 281.9179610053711,496.2790219863282 282.10900100537106,492.37768598632806 C285.0938030053711,494.86148098632816 288.5499800053711,495.1408999863281 292.3458630053711,495.13638298632804 C359.1714710053711,495.0570679863281 425.9973070053711,495.11563098632814 492.8226550053711,494.9624629863281 C495.9115520053711,494.9553829863281 498.9965440053711,493.2472229863281 502.43410500537107,492.17358398632814 C502.7504200053711,495.76592998632805 502.7159040053711,499.5160519863282 502.48500800537107,503.6194459863282 z" id="svg_93" class=""/><path fill="#FDFAFC" opacity="1.000000" stroke="none" d="M387.6435170053711,200.92636098632812 C388.8786240053711,198.55543498632812 390.11370100537107,196.18450898632813 391.6601790053711,193.28453098632815 C393.4770130053711,190.50736998632811 394.9824750053711,188.2592619863281 396.7743150053711,185.84870898632812 C402.1837690053711,181.36823998632815 407.3068160053711,177.05023198632813 412.4298630053711,172.7322239863281 C414.70607800537107,171.73509198632814 416.9823230053711,170.7379459863281 419.9176250053711,169.48181198632813 C432.33803600537107,165.0133819863281 444.2211840053711,165.3651579863281 456.1725690053711,168.27224698632813 C458.6367720053711,169.2851409863281 461.1009750053711,170.29803498632816 464.1217580053711,171.6036679863281 C470.6064680053711,176.66790798632815 476.5345690053711,181.4394069863281 482.5964280053711,186.5120539863281 C484.2841110053711,188.9313049863281 485.83803600537107,191.0494079863281 487.3919910053711,193.16749598632816 C488.3436510053711,195.36883498632812 489.2953110053711,197.57017498632808 490.4798200053711,200.43234298632814 C495.3194810053711,212.70677198632814 494.8680340053711,224.46388198632815 491.7113270053711,236.29772998632814 C490.6959150053711,238.65084798632813 489.6804730053711,241.00395198632816 488.3621140053711,243.9136659863281 C483.8037950053711,252.06919898632816 483.8097760053711,252.0632779863281 490.12563300537107,258.4281919863281 C491.0514760053711,259.36126698632813 491.8890910053711,260.3818359863281 492.5293200053711,261.58959998632815 C490.3042830053711,263.5343019863281 488.3174360053711,265.25128198632814 486.07558400537107,267.0766299863281 C485.37889900537107,267.5061339863281 484.9372180053711,267.82723998632815 484.1604540053711,268.0831599863281 C481.73329900537107,266.1941219863281 479.5767140053711,264.43807998632815 477.5668870053711,262.5276789863281 C475.4886400053711,260.5522459863281 473.8613200053711,260.65179398632813 472.1657940053711,263.26226798632814 C469.0284350053711,264.9568479863281 466.23363500537107,266.6343989863281 463.0894390053711,268.2628479863281 C460.6340260053711,269.1935419863281 458.5280080053711,270.17330898632815 456.0370710053711,271.17675798632814 C443.5620350053711,274.5326539863281 431.5779950053711,274.03305098632813 419.3983990053711,269.9757999863281 C416.8367840053711,268.7542419863281 414.5628590053711,267.76165798632815 412.08391600537107,266.53585798632815 C402.5208050053711,260.9554749863281 395.5341720053711,253.3035279863281 390.22454100537107,244.02174398632815 C389.2979050053711,241.69055198632816 388.3712390053711,239.35935998632812 387.1664350053711,236.38656598632815 C386.3569560053711,233.5421599863281 385.8256760053711,231.3393549863281 385.3208240053711,228.72035198632813 C383.2484970053711,218.93798798632815 385.3053510053711,209.92037998632816 387.6435170053711,200.92636098632812 M454.6069870053711,176.25320398632812 C439.1968000053711,172.00216698632812 424.5923080053711,173.34852598632813 411.5119860053711,183.1302339863281 C397.6594770053711,193.48942598632811 390.7305830053711,207.56671098632813 392.8283000053711,224.7537989863281 C396.7046740053711,256.51336698632815 429.5333180053711,273.53433198632814 457.7064740053711,262.0156559863281 C479.29708100537107,253.1882319863281 491.3734970053711,227.91305498632812 483.9549790053711,205.85369898632814 C479.1254810053711,191.49279798632813 469.2503890053711,182.05047598632814 454.6069870053711,176.25320398632812 z" id="svg_92" class=""/><path fill="#FDDD3A" opacity="1.000000" stroke="none" d="M406.85408800537107,372.0314029863282 C406.70204900537107,372.2378539863281 406.6173630053711,372.4689939863281 406.2730030053711,373.1118159863281 C403.2140430053711,378.18884298632815 399.39177700537107,380.59167498632814 393.7127910053711,380.17227198632804 C388.9408490053711,379.8198239863282 384.1153180053711,379.93789698632804 379.3259810053711,380.1412349863281 C373.5258100053711,380.3874819863281 369.0588300053711,378.5218509863281 366.4063340053711,372.6205139863282 C366.3867420053711,367.1612549863281 366.4216230053711,362.1664429863281 366.4934920053711,356.7023619863281 C366.5248950053711,352.9222409863281 366.79665400537107,349.5748599863282 366.3686140053711,346.31951898632815 C366.2112660053711,345.12295498632807 364.5141220053711,343.3786619863281 363.3225330053711,343.20050098632805 C358.6104350053711,342.49603298632815 353.8203660053711,342.31347698632817 349.0591960053711,341.93740798632814 C359.3792650053711,330.46420298632813 369.6358870053711,318.93295298632813 380.0490040053711,307.5448299863281 C384.5426560053711,302.63040198632814 388.8321760053711,302.8693849863281 393.5775680053711,308.0841669863281 C403.6320110053711,319.1332089863281 413.6084210053711,330.25323498632815 423.3018720053711,341.6908569863281 C421.36284600537107,342.26885998632815 419.7314990053711,342.4581299863281 418.1162340053711,342.73989898632817 C414.2961040053711,343.40624998632813 408.6623760053711,342.87435898632816 407.1285320053711,345.12319898632813 C405.2055590053711,347.94262698632815 406.6483080053711,353.0577389863281 406.6332020053711,357.63638298632804 C406.7033920053711,362.7376399863281 406.7787400053711,367.3845209863282 406.85408800537107,372.0314029863282 z" id="svg_91" class=""/><path fill="#3B2C74" opacity="1.000000" stroke="none" d="M502.2885970053711,503.97274798632816 C502.4053570053711,508.9300839863281 502.8594890053711,513.9189149863281 502.4020000053711,518.8226619863282 C502.2873460053711,520.0515439863282 499.3283620053711,521.1976009863281 497.5107960053711,522.0114439863281 C496.5400620053711,522.4461359863282 495.2155990053711,522.0917049863282 494.05077400537107,522.0917049863282 C426.3239670053711,522.0918879863282 358.5971600053711,522.0921939863281 290.8703540053711,522.0912779863281 C282.99395000537106,522.0912169863282 281.5526960053711,520.6777649863282 281.5542220053711,512.8556209863282 C281.5547710053711,510.02926598632814 281.6615680053711,507.2028809863282 282.0660020053711,504.1913759863281 C285.0505140053711,504.7479859863281 287.6878130053711,506.1329349863281 290.3274920053711,506.13754298632807 C358.5127790053711,506.25634798632814 426.6982960053711,506.2550659863282 494.8835980053711,506.13616898632813 C497.3531720053711,506.1318659863282 499.8203350053711,504.7256159863282 502.2885970053711,503.97274798632816 z" id="svg_90" class=""/><path fill="#EF5C9C" opacity="1.000000" stroke="none" d="M282.2977220053711,492.02349898632815 C282.2776410053711,468.88885498632817 282.2314380053711,445.7542109863282 282.2571330053711,422.61962898632805 C282.26303900537107,417.31158398632806 283.7267230053711,415.9069819863281 289.21080800537106,415.90512098632814 C358.1177900053711,415.88165298632816 427.0247730053711,415.8810119863281 495.9317550053711,415.9066159863281 C501.4947740053711,415.9086909863281 502.8296740053711,417.35818498632807 502.83709000537107,423.1815799863282 C502.8659590053711,445.8176569863281 502.8506700053711,468.45379598632815 502.4675520053711,491.71060198632813 C498.9965440053711,493.2472229863281 495.9115520053711,494.9553829863281 492.8226550053711,494.9624629863281 C425.9973070053711,495.11563098632814 359.1714710053711,495.0570679863281 292.3458630053711,495.13638298632804 C288.5499800053711,495.1408999863281 285.0938030053711,494.86148098632816 282.2977220053711,492.02349898632815 M302.7907490053711,473.34927398632817 C303.8781200053711,477.83648698632805 306.8427660053711,479.26480098632805 311.2916950053711,479.2543339863281 C349.6081770053711,479.1640929863281 387.9249800053711,479.2111509863281 426.2416920053711,479.1939999863282 C432.0445180053711,479.19140598632816 434.7658920053711,476.96630898632816 434.6979900053711,472.46072398632805 C434.63301800537107,468.1512149863281 431.9954760053711,466.0010989863281 426.4849170053711,465.99810798632814 C388.0016100053711,465.97711198632805 349.5182420053711,466.0227969863281 311.0350880053711,465.94415298632816 C306.2506480053711,465.93438698632815 303.4291310053711,467.78839098632807 302.7907490053711,473.34927398632817 M437.0331950053711,450.30267298632816 C440.1986920053711,450.3014829863282 443.3647690053711,450.3370969863281 446.5295940053711,450.2907709863282 C451.72582200537107,450.2147519863281 454.6911850053711,447.7383119863282 454.62426000537107,443.60116598632817 C454.5601120053711,439.63137798632806 451.6874620053711,437.07104498632816 446.7933270053711,437.0612489863281 C420.4698410053711,437.00845298632817 394.1461110053711,437.01809698632815 367.8226850053711,437.08572398632805 C366.2351610053711,437.08981298632807 363.9880290053711,437.2622069863281 363.2045210053711,438.2623899863281 C361.7106860053711,440.1693729863282 360.0184860053711,442.8569029863281 360.2788310053711,444.9924009863281 C360.7177960053711,448.59283398632806 363.6363140053711,450.3430479863282 367.5613630053711,450.33096298632813 C390.3860090053711,450.26071198632815 413.2110520053711,450.3005069863282 437.0331950053711,450.30267298632816 M306.1791760053711,449.4620059863281 C307.6255110053711,449.7406619863282 309.07033500537113,450.2515559863282 310.5184250053711,450.26092498632806 C321.1468730053711,450.3297729863282 331.7762370053711,450.3430789863281 342.4047470053711,450.27929698632806 C347.6802290053711,450.24764998632804 350.5192180053711,447.78030398632814 350.4539720053711,443.5605769863281 C350.3897020053711,439.4067989863281 347.5440600053711,437.0843199863282 342.1743390053711,437.0540469863281 C331.7118450053711,436.99508698632815 321.2382430053711,436.78231798632805 310.7936480053711,437.21859698632807 C308.2950520053711,437.3229069863281 304.7243270053711,439.18704198632804 303.7827990053711,441.22747798632804 C302.8880540053711,443.1665339863282 304.7888260053711,446.39556898632804 306.1791760053711,449.4620059863281 z" id="svg_89" class=""/><path fill="#473080" fill-opacity="1" stroke="none" stroke-opacity="1" stroke-width="1" stroke-dasharray="none" stroke-linejoin="miter" stroke-linecap="butt" stroke-dashoffset="" fill-rule="nonzero" opacity="1" marker-start="" marker-mid="" marker-end="" d="M280.48602294921875,294.0223388671875 C280.48602294921875,287.9449908008892 296.8202770928651,283.0223388671875 316.98602294921875,283.0223388671875 C337.1517688055723,283.0223388671875 353.48602294921875,287.9449908008892 353.48602294921875,294.0223388671875 C353.48602294921875,300.0996869334858 337.1517688055723,305.0223388671875 316.98602294921875,305.0223388671875 C296.8202770928651,305.0223388671875 280.48602294921875,300.0996869334858 280.48602294921875,294.0223388671875 z" id="svg_17" class=""/><path fill="#473080" opacity="1" stroke="none" d="M575.7881090053711,178.81195098632816 C592.8082500053711,197.62045298632813 605.4776230053711,218.73707598632814 615.2910390053711,241.66326898632815 C624.2269520053711,262.5394289863281 629.704063005371,284.40408298632815 632.2760240053711,306.8286739863281 C634.2382430053711,323.9371029863281 634.1456530053711,341.18371598632814 631.8188100053711,358.44207798632806 C629.4388660053711,376.0948789863281 625.6243510053711,393.30267298632816 619.661827005371,410.04263298632804 C610.8898540053711,434.6699519863281 598.2090070053711,457.07159398632814 581.7804790053711,477.4649959863282 C558.4330980053711,506.4470519863281 530.0252910053712,528.9156799863281 496.3575360053711,544.6144099863282 C473.8763960053711,555.0969539863281 450.4867480053711,562.7928159863282 425.5973130053711,565.1225889863281 C414.7295460053711,566.1398619863281 403.8506090053711,567.9834289863281 392.9870220053711,567.9108579863281 C367.0256270053711,567.7374569863281 341.5628280053711,563.7310489863281 316.7694630053711,555.7174989863281 C287.4920430053711,546.2546689863282 260.9767840053711,531.7112729863281 237.31369800537107,512.1714169863282 C216.8049240053711,495.2362369863281 199.35996200537113,475.42446898632807 185.62941700537112,452.5908509863282 C169.4766010053711,425.72909498632816 158.18910200537107,396.95312498632813 154.59845700537107,365.64700298632806 C152.8647230053711,350.5308529863281 151.1983260053711,335.19641098632815 151.86804200537108,320.06555198632805 C152.8265230053711,298.4108279863281 157.0445480053711,277.11492898632815 164.20587900537112,256.4526669863281 C171.10160800537108,236.5567929863281 180.0631640053711,217.68002298632814 192.04874400537108,200.4778139863281 C215.5208210053711,166.7897339863281 245.44614400537108,140.28443898632815 282.2615430053711,121.67548398632812 C305.25246400537105,110.05433698632811 329.4270250053711,102.0592269863281 354.8258900053711,98.41590898632813 C369.7034530053711,96.28181498632813 384.9116740053711,94.86085498632815 399.8900680053711,95.39450098632813 C422.3764270053711,96.19562498632814 444.5808330053711,99.80840298632813 466.2240520053711,106.74375898632815 C495.7087940053711,116.19186398632814 522.5710680053711,130.44058198632808 546.4508590053711,149.92164598632814 C556.948204005371,158.4853519863281 565.893272005371,168.95176698632815 575.7881090053711,178.81195098632816 M375.60768900537107,228.89729298632813 C375.3869550053711,236.66894498632814 375.6682970053711,236.9576869863281 383.5568470053711,236.7735599863281 C384.70934300537107,236.74665798632816 385.8583910053711,236.57405098632813 387.4446030053711,237.02816798632813 C388.3712390053711,239.35935998632812 389.2979050053711,241.69055198632816 389.3445970053711,244.11018398632814 C386.5384450053711,244.12901298632812 383.7158430053711,244.34777798632808 380.9301070053711,244.1184849863281 C377.0293200053711,243.79739398632813 375.5726550053711,245.4192349863281 375.6644210053711,249.2461399863281 C375.8463670053711,256.8345339863281 375.7877430053711,264.4286799863281 375.6072920053711,272.84735098632814 C376.0077740053711,275.2043459863281 376.4082870053711,277.5613399863281 376.1416850053711,280.47775298632814 C375.9516530053711,284.5944519863281 375.4546130053711,288.7344059863281 375.7638780053711,292.8132319863281 C375.8533860053711,293.9936829863281 378.2296370053711,295.89797998632815 379.6033550053711,295.9390559863281 C388.9088970053711,296.2174989863281 398.2266770053711,296.0805659863281 407.5405200053711,296.08825698632813 C411.1194690053711,296.0912169863281 412.6227950053711,294.20370498632815 412.5467760053711,290.7566529863281 C412.4940110053711,288.36273198632813 412.5366440053711,285.9667359863281 412.5366440053711,283.29763798632814 C417.3340680053711,284.3478089863281 420.1418080053711,285.90118398632814 419.6001820053711,290.7409969863281 C419.1786420053711,294.5077509863281 421.2882610053711,296.14532498632815 425.0160140053711,296.1092529863281 C432.4996570053711,296.03689598632815 439.9844590053711,296.0893249863281 447.4688030053711,296.0892329863281 C454.9644390053711,296.0891719863281 454.7192920053711,296.0177919863281 456.7748340053711,288.90280198632814 C457.2394030053711,287.2946779863281 459.9685590053711,286.1711119863281 461.8694380053711,285.2826539863281 C462.2774280053711,285.09194898632813 464.2522810053711,286.77841198632814 464.42018900537107,287.78176898632813 C465.8082500053711,296.07638598632815 465.73088800537107,296.08935498632815 474.0033490053711,296.0894169863281 C475.50020600537107,296.0894169863281 477.0200120053711,296.2575069863281 478.4895550053711,296.05706798632815 C482.49239300537107,295.5111079863281 485.3380660053711,297.0917049863281 488.07094600537107,299.99871798632813 C494.1057660053711,306.41809098632814 500.5509260053711,312.4497069863281 506.6792530053711,318.7840579863282 C509.6703720053711,321.8757319863281 513.1417160053711,322.9456789863282 517.0854720053711,321.70635998632815 C527.0537340053711,318.5738529863281 529.9512560053711,309.1724239863281 523.847252005371,300.5401309863281 C529.3182910053711,294.2754519863281 529.2094350053711,291.34725998632814 523.2499620053711,285.4031069863281 C515.6382060053711,277.8108219863281 508.0153120053711,270.2297669863281 500.4495470053711,261.6183469863281 C500.4549790053711,259.9523929863281 500.4647750053711,258.2864379863281 500.4651720053711,256.6204829863281 C500.4680710053711,244.45785498632813 500.4674910053711,244.45785498632813 488.6650310053711,243.35705598632813 C489.6804730053711,241.00395198632816 490.6959150053711,238.65084798632813 492.5803450053711,236.2709499863281 C500.6494670053711,236.1089329863281 500.6167830053711,236.10931398632812 500.52321600537107,227.9327849863281 C500.4549480053711,221.9683529863281 500.4840930053711,216.0027619863281 500.4752430053711,210.03768898632813 C500.4610210053711,200.42504898632814 500.4629140053711,200.42504898632814 490.24694100537107,199.77152998632812 C489.2953110053711,197.57017498632808 488.3436510053711,195.36883498632812 488.3314740053711,193.1008299863281 C489.8256150053711,193.08906598632814 491.3197860053711,193.06785598632814 492.8139270053711,193.06707798632812 C500.9347460053711,193.06286598632812 500.9347460053711,193.06460598632816 500.4361190053711,184.1113429863281 C500.4415820053711,176.81452898632813 500.2837450053711,169.5124819863281 500.5174790053711,162.2229919863281 C500.6450730053711,158.24360698632813 499.07738500537107,156.9550779863281 495.2543560053711,157.0816499863281 C488.9594350053711,157.29009998632813 482.6526110053711,157.13853498632812 476.3507920053711,157.1385649863281 C462.4242170053711,157.13859598632814 462.2885970053711,157.29820298632814 463.5651780053711,171.31092798632812 C461.1009750053711,170.29803498632816 458.6367720053711,169.2851409863281 456.2895430053711,167.35139498632816 C456.3042220053711,166.02015698632812 456.18410500537107,164.67102098632813 456.3579030053711,163.36088598632813 C456.9785080053711,158.6826929863281 455.2977520053711,156.72598298632812 450.3146290053711,157.0311739863281 C444.01403000537107,157.41708398632812 437.6704330053711,157.03691098632817 431.3479840053711,157.14298998632813 C418.5274280053711,157.3581239863281 419.5408250053711,154.72390698632813 419.25853700537107,169.74079898632812 C416.9823230053711,170.7379459863281 414.70607800537107,171.73509198632814 412.3324810053711,171.7183079863281 C412.3250960053711,168.39984098632812 412.2536540053711,165.0799409863281 412.32833100537107,161.76333598632812 C412.4036480053711,158.41708398632812 410.9807050053711,157.02584798632813 407.5375900053711,157.08422898632813 C398.7460250053711,157.2333069863281 389.94371800537107,157.33389298632812 381.1591420053711,157.04458598632812 C377.1843800053711,156.9136659863281 375.7340930053711,158.4919129863281 375.7479480053711,162.13674898632814 C375.7769390053711,169.76623498632813 375.7925640053711,177.39575198632815 375.5986860053711,185.88993798632816 C375.4453960053711,193.0649869863281 375.4453960053711,193.05929598632815 382.5465620053711,193.07485998632814 C385.5008160053711,193.08132898632812 388.4550400053711,193.1178589863281 391.3487780053711,193.81358298632813 C390.11370100537107,196.18450898632813 388.8786240053711,198.55543498632812 386.7051930053711,200.90472398632812 C384.8777390053711,200.89524798632812 383.0296250053711,201.05807498632817 381.22686000537107,200.84237698632813 C376.7198720053711,200.30306998632813 375.45290400537107,202.37750198632813 375.6320110053711,206.61614998632814 C375.9333720053711,213.7469019863281 375.7947920053711,220.89625598632813 375.60768900537107,228.89729298632813 M332.1074140053711,193.4707029863281 C332.41890700537107,195.82145698632814 332.7304000053711,198.17221098632814 332.6319810053711,201.2249299863281 C332.2822190053711,202.61833198632814 331.6422350053711,204.00941498632812 331.6310350053711,205.40551798632816 C331.5704570053711,212.96704098632813 331.6653980053711,220.52979998632816 331.5398480053711,228.94442798632815 C331.5926130053711,231.2051699863281 331.6454090053711,233.4659269863281 331.6074140053711,236.67983998632815 C331.6109850053711,239.55776998632814 331.6145250053711,242.43569898632813 331.6169360053711,246.22285498632812 C331.6423570053711,254.8296199863281 331.6677780053711,263.43637098632814 331.5362470053711,272.8799129863281 C331.9661790053711,275.2209469863281 332.3961110053711,277.5620119863281 332.15465500537107,280.4620969863281 C331.9509200053711,284.05984498632813 331.8202130053711,287.6636659863281 331.5232770053711,291.25369298632813 C331.2170940053711,294.9560549863281 332.8710250053711,296.20739698632815 336.4774700053711,296.1405029863281 C345.2443160053711,295.97793598632813 354.0185170053711,295.96932998632815 362.7849660053711,296.1425479863281 C366.5575490053711,296.21710198632815 367.7809680053711,294.6197199863281 367.5823590053711,291.0801999863281 C367.3694080053711,287.2853089863281 367.4463120053711,283.47415198632814 367.5937420053711,278.99389598632814 C367.6181260053711,276.6816099863281 367.6425400053711,274.3693539863281 367.7578050053711,271.1271669863281 C367.7018660053711,262.3949589863281 367.6459270053711,253.66274998632815 367.6671070053711,244.16128498632816 C367.5813520053711,241.45222498632813 367.4955980053711,238.7431639863281 367.6105580053711,235.17164598632814 C367.62932600537107,232.80639598632808 367.6480940053711,230.44113198632812 367.7607040053711,227.14382898632812 C367.67302700537107,218.50765998632812 367.5853200053711,209.8715059863281 367.5258100053711,200.35102798632812 C367.1926500053711,197.92626998632812 366.8594890053711,195.5014949863281 366.8980940053711,192.4502559863281 C367.1550520053711,189.98495498632815 367.4120100053711,187.51966898632816 367.7576830053711,184.1246489863281 C367.7630540053711,176.65913398632813 367.64727000537107,169.19068898632815 367.8272020053711,161.7293849863281 C367.9114910053711,158.23493998632813 366.5331340053711,157.04646298632815 363.1433030053711,157.0970459863281 C354.1866070053711,157.23068198632814 345.2254260053711,157.22309898632813 336.2684860053711,157.09649698632813 C332.9111560053711,157.04905698632814 331.4338300053711,158.19938698632814 331.5291980053711,161.7147059863281 C331.7316210053711,169.17414898632813 331.6729050053711,176.64067098632813 331.5469280053711,184.94592298632813 C331.9453660053711,187.6092069863281 332.3438030053711,190.27250698632815 332.1074140053711,193.4707029863281 M288.2788310053711,193.70330798632813 C288.0685500053711,196.31469698632816 287.8582690053711,198.92608598632813 287.64580500537113,202.41870098632813 C287.6395030053711,211.29574598632814 287.6332170053711,220.17280598632811 287.4595410053711,229.8878939863281 C287.54555500537106,231.82253998632814 287.6315690053711,233.75718698632812 287.6165080053711,236.64753698632813 C287.6154710053711,239.53256198632812 287.6144330053711,242.41760298632812 287.6221080053711,246.21324198632811 C287.6390610053711,254.5171199863281 287.6559980053711,262.82098398632814 287.1544720053711,271.6541439863281 C287.6873550053711,274.42193598632815 288.22023800537113,277.1897579863281 288.0994190053711,280.5200199863281 C287.9226300053711,284.6216739863281 287.4403000053711,288.7473759863281 287.7595440053711,292.8100589863281 C287.85253100537113,293.99346898632814 290.2068410053711,295.89697298632814 291.5705950053711,295.9378969863281 C300.83297000537107,296.21581998632814 310.10797900537113,296.0394289863281 319.3781660053711,296.1097409863281 C322.30489300537107,296.13195798632813 323.6543810053711,294.94152798632814 323.5582500053711,291.9738459863281 C323.4243390053711,287.84011798632815 323.4135670053711,283.70242298632814 323.5843120053711,278.8934939863281 C323.61275500537107,276.28219598632813 323.6411670053711,273.67092898632814 323.6909100053711,270.1263119863281 C323.5956040053711,261.8072199863281 323.5003280053711,253.4880979863281 324.0417100053711,244.6031799863281 C324.1558150053711,241.32189898632816 324.26995100537107,238.04060398632816 324.3700790053711,233.9897919863281 C324.1504750053711,232.00488298632808 323.9308700053711,230.01998898632814 323.7143780053711,227.1047519863281 C323.6322560053711,218.52128598632817 323.5501330053711,209.93781998632812 323.5110400053711,200.46005298632815 C323.1625290053711,197.9423369863281 322.8139880053711,195.4246369863281 322.8224720053711,192.2892759863281 C323.1443410053711,189.87716698632812 323.46620900537107,187.46505698632814 323.7643050053711,184.12072798632812 C323.7390370053711,176.62252798632812 323.6234660053711,169.12301598632814 323.7313770053711,161.6267239863281 C323.7767560053711,158.47445698632816 322.6914900053711,157.06281998632812 319.4038310053711,157.10221898632813 C310.2396470053711,157.21203598632815 301.0723500053711,157.21433998632813 291.9082870053711,157.09922798632812 C288.6583180053711,157.05839498632815 287.4709090053711,158.37258898632808 287.52718400537105,161.5640409863281 C287.6652300053711,169.39332598632814 287.5983510053711,177.22621198632817 287.4547960053711,185.88458298632816 C287.8404770053711,188.23052998632812 288.2261580053711,190.57646198632813 288.2788310053711,193.70330798632813 M422.5721660053711,356.2872009863281 C429.4300160053711,352.27773998632813 429.9218980053711,347.0043339863281 423.6168440053711,341.34414698632804 C413.6084210053711,330.25323498632815 403.6320110053711,319.1332089863281 393.5775680053711,308.0841669863281 C388.8321760053711,302.8693849863281 384.5426560053711,302.63040198632814 380.0490040053711,307.5448299863281 C369.6358870053711,318.93295298632813 359.3792650053711,330.46420298632813 348.44963800537107,342.14727798632816 C342.9763720053711,348.3314209863281 343.6766280053711,352.36187698632807 350.3125530053711,357.14111298632815 C349.5645370053711,357.7817689863282 348.8391040053711,358.4512939863282 348.0644450053711,359.05798298632817 C344.9543990053711,361.4938349863281 345.0272140053711,364.68771398632816 346.0585560053711,367.99328598632815 C347.1993940053711,371.6496889863281 350.0465620053711,372.17095898632806 353.4955980053711,372.1750789863281 C357.5663680053711,372.1799009863281 361.6364360053711,372.7961729863282 365.8796310053711,374.0420229863281 C366.1373520053711,378.6442569863282 366.39504200537107,383.2464599863281 366.58983600537107,388.81060798632814 C366.5734480053711,392.13571198632815 366.5405810053711,395.46081498632816 366.5441510053711,398.78588898632813 C366.5514140053711,405.5862119863282 370.80498500537107,410.0024109863282 377.5249860053711,410.07641598632813 C383.5098800053711,410.14233398632814 389.49651300537107,410.13629198632816 395.4815600053711,410.07784998632815 C401.9960560053711,410.0142819863281 406.4461900053711,405.6399229863282 406.52459000537107,399.2041319863281 C406.5711590053711,395.3830259863281 406.4370960053711,391.55978398632806 406.47359500537107,386.86099198632814 C406.4643780053711,382.26168798632807 406.4551620053711,377.66241498632814 406.59996800537107,372.7247619863281 C406.6173630053711,372.4689939863281 406.70204900537107,372.2378539863281 407.9042590053711,372.0833129863281 C412.0592580053711,372.0856929863281 416.2180710053711,372.2029109863281 420.3683090053711,372.0634159863282 C426.5694810053711,371.8550719863281 429.6708600053711,366.0603939863281 426.3041610053711,360.82244898632814 C425.2741320053711,359.21990998632805 423.4772570053711,358.1102599863282 422.5721660053711,356.2872009863281 M281.7198720053711,504.3764949863281 C281.6615680053711,507.2028809863282 281.5547710053711,510.02926598632814 281.5542220053711,512.8556209863282 C281.5526960053711,520.6777649863282 282.99395000537106,522.0912169863282 290.8703540053711,522.0912779863281 C358.5971600053711,522.0921939863281 426.3239670053711,522.0918879863282 494.05077400537107,522.0917049863282 C495.2155990053711,522.0917049863282 496.5400620053711,522.4461359863282 497.5107960053711,522.0114439863281 C499.3283620053711,521.1976009863281 502.2873460053711,520.0515439863282 502.4020000053711,518.8226619863282 C502.8594890053711,513.9189149863281 502.4053570053711,508.9300839863281 502.6813890053711,503.2661439863282 C502.7159040053711,499.5160519863282 502.7504200053711,495.76592998632805 502.8517990053711,491.08990498632807 C502.8506700053711,468.45379598632815 502.8659590053711,445.8176569863281 502.83709000537107,423.1815799863282 C502.8296740053711,417.35818498632807 501.4947740053711,415.9086909863281 495.9317550053711,415.9066159863281 C427.0247730053711,415.8810119863281 358.1177900053711,415.88165298632816 289.21080800537106,415.90512098632814 C283.7267230053711,415.9069819863281 282.26303900537107,417.31158398632806 282.2571330053711,422.61962898632805 C282.2314380053711,445.7542109863282 282.2776410053711,468.88885498632817 281.92028000537107,492.7318729863282 C281.9179610053711,496.2790219863282 281.91564200537107,499.82617198632806 281.7198720053711,504.3764949863281 z" id="svg_82" class=""/><path fill="#FEDD3C" opacity="1.000000" stroke="none" d="M455.6154710053711,217.38900798632812 C453.0935900053711,218.32301298632814 450.7939380053711,218.93092298632814 447.8835070053711,219.7003019863281 C447.8835070053711,216.80924998632815 447.8835070053711,214.77885398632816 447.8835070053711,212.74668898632814 C454.5504990053711,211.40385398632816 455.88448300537107,212.1314699863281 455.6154710053711,217.38900798632812 z" id="svg_144" class=""/><path fill="#FEDD3C" opacity="1.000000" stroke="none" d="M452.8601910053711,231.66583298632816 C451.0129620053711,231.75407398632814 449.5597760053711,231.75407398632814 447.7796860053711,231.75407398632814 C447.7796860053711,228.7592619863281 447.7796860053711,226.20671098632812 447.7796860053711,223.27522298632812 C451.5055160053711,223.41511498632815 455.8667830053711,221.0034789863281 457.7767560053711,225.9944309863281 C459.1300280053711,229.53066998632812 456.3497540053711,230.9785309863281 452.8601910053711,231.66583298632816 z" id="svg_143" class=""/><path fill="#F06398" opacity="1.000000" stroke="none" d="M450.4686200053711,235.10638398632813 C448.0515370053711,235.10638398632813 446.1004560053711,235.10638398632813 443.5249250053711,235.10638398632813 C443.5249250053711,230.3834379863281 443.5249250053711,226.12435898632816 443.5249250053711,221.86526498632816 C443.5249250053711,217.57125898632813 443.5249250053711,213.2772519863281 443.5249250053711,208.28430198632816 C446.9320300053711,208.28430198632816 450.2300950053711,207.58834798632813 453.0156480053711,208.48486298632815 C455.6698840053711,209.33914198632812 458.79021500537107,211.42088298632814 459.8142010053711,213.78294398632812 C460.5760420053711,215.54032898632812 458.3178020053711,218.60694898632812 457.6278310053711,220.48356598632813 C459.0228200053711,222.85070798632813 461.3961410053711,225.46311998632814 461.9782030053711,228.42727698632814 C462.29760000537107,230.0538179863281 459.9969100053711,232.9622349863281 458.14778900537107,234.03706398632812 C456.1957320053711,235.1717069863281 453.3755420053711,234.81280498632816 450.4686200053711,235.10638398632813 M453.2542340053711,231.57759098632812 C456.3497540053711,230.9785309863281 459.1300280053711,229.53066998632812 457.7767560053711,225.9944309863281 C455.8667830053711,221.0034789863281 451.5055160053711,223.41511498632815 447.7796860053711,223.27522298632812 C447.7796860053711,226.20671098632812 447.7796860053711,228.7592619863281 447.7796860053711,231.75407398632814 C449.5597760053711,231.75407398632814 451.0129620053711,231.75407398632814 453.2542340053711,231.57759098632812 M455.8376690053711,217.06292698632814 C455.88448300537107,212.1314699863281 454.5504990053711,211.40385398632816 447.8835070053711,212.74668898632814 C447.8835070053711,214.77885398632816 447.8835070053711,216.80924998632815 447.8835070053711,219.7003019863281 C450.7939380053711,218.93092298632814 453.0935900053711,218.32301298632814 455.8376690053711,217.06292698632814 z" id="svg_142" class=""/><path fill="#F06398" opacity="1.000000" stroke="none" d="M430.4574810053711,227.4189609863281 C430.0462570053711,225.0493619863281 429.6640550053711,223.11045798632813 429.0560230053711,220.02587898632817 C428.3231740053711,225.6166839863281 427.7403490053711,230.0630039863281 427.1632920053711,234.46505698632814 C422.4359970053711,236.2065119863281 420.6832500053711,234.66770898632814 420.4614790053711,229.88639798632812 C420.1848680053711,223.92307998632816 419.0952990053711,218.00089998632814 418.65413700537107,212.03893998632816 C418.5650560053711,210.83488498632812 419.80394700537107,209.53254698632816 420.4306260053711,208.27552798632814 C421.13851200537107,209.5208129863281 422.2982710053711,210.7050779863281 422.4760970053711,212.0219419863281 C423.2453540053711,217.71729998632816 423.7274400053711,223.45144698632816 425.2179180053711,229.13278198632815 C425.6843490053711,225.77596998632816 425.9399340053711,222.3694309863281 426.7141650053711,219.08517498632813 C427.0550770053711,217.63905298632812 428.4506450053711,216.44155898632812 429.3673630053711,215.13116498632814 C430.1135790053711,216.3538509863281 431.2114490053711,217.49005098632813 431.5375290053711,218.81605498632814 C432.38542900537107,222.26406898632808 432.8944020053711,225.79544098632812 434.2889020053711,229.15643298632813 C434.7557600053711,223.53773498632813 435.2532270053711,217.92135598632814 435.6757430053711,212.29933198632813 C435.8676070053711,209.7463229863281 436.1749800053711,207.46533198632812 440.2496570053711,208.68177798632814 C439.27510800537107,217.26789898632813 438.2941210053711,225.91073598632812 437.32558400537107,234.44366498632814 C430.9136890053711,235.6183469863281 430.9136890053711,235.6183469863281 430.4574810053711,227.4189609863281 z" id="svg_141" class=""/><path fill="#FEDD3C" opacity="1.000000" stroke="none" d="M429.8235700053711,181.06941198632813 C452.9476240053711,176.57925398632813 473.3116680053711,188.83409098632814 478.8046800053711,210.20861798632814 C484.7592090053711,233.37899798632816 468.3300700053711,256.42761198632815 444.4743880053711,259.2710879863281 C419.1729350053711,262.28692598632813 398.4710620053711,242.47869898632814 398.6007920053711,219.41421498632815 C398.7017140053711,201.46847498632815 410.5667650053711,186.83204698632812 429.8235700053711,181.06941198632813 M430.4865340053711,227.84965498632812 C430.9136890053711,235.6183469863281 430.9136890053711,235.6183469863281 437.32558400537107,234.44366498632814 C438.2941210053711,225.91073598632812 439.27510800537107,217.26789898632813 440.2496570053711,208.68177798632814 C436.1749800053711,207.46533198632812 435.8676070053711,209.7463229863281 435.6757430053711,212.29933198632813 C435.2532270053711,217.92135598632814 434.7557600053711,223.53773498632813 434.2889020053711,229.15643298632813 C432.8944020053711,225.79544098632812 432.38542900537107,222.26406898632808 431.5375290053711,218.81605498632814 C431.2114490053711,217.49005098632813 430.1135790053711,216.3538509863281 429.3673630053711,215.13116498632814 C428.4506450053711,216.44155898632812 427.0550770053711,217.63905298632812 426.7141650053711,219.08517498632813 C425.9399340053711,222.3694309863281 425.6843490053711,225.77596998632816 425.2179180053711,229.13278198632815 C423.7274400053711,223.45144698632816 423.2453540053711,217.71729998632816 422.4760970053711,212.0219419863281 C422.2982710053711,210.7050779863281 421.13851200537107,209.5208129863281 420.4306260053711,208.27552798632814 C419.80394700537107,209.53254698632816 418.5650560053711,210.83488498632812 418.65413700537107,212.03893998632816 C419.0952990053711,218.00089998632814 420.1848680053711,223.92307998632816 420.4614790053711,229.88639798632812 C420.6832500053711,234.66770898632814 422.4359970053711,236.2065119863281 427.1632920053711,234.46505698632814 C427.7403490053711,230.0630039863281 428.3231740053711,225.6166839863281 429.0560230053711,220.02587898632817 C429.6640550053711,223.11045798632813 430.0462570053711,225.0493619863281 430.4865340053711,227.84965498632812 M450.9346240053711,235.1063689863281 C453.3755420053711,234.81280498632816 456.1957320053711,235.1717069863281 458.14778900537107,234.03706398632812 C459.9969100053711,232.9622349863281 462.29760000537107,230.0538179863281 461.9782030053711,228.42727698632814 C461.3961410053711,225.46311998632814 459.0228200053711,222.85070798632813 457.6278310053711,220.48356598632813 C458.3178020053711,218.60694898632812 460.5760420053711,215.54032898632812 459.8142010053711,213.78294398632812 C458.79021500537107,211.42088298632814 455.6698840053711,209.33914198632812 453.0156480053711,208.48486298632815 C450.2300950053711,207.58834798632813 446.9320300053711,208.28430198632816 443.5249250053711,208.28430198632816 C443.5249250053711,213.2772519863281 443.5249250053711,217.57125898632813 443.5249250053711,221.86526498632816 C443.5249250053711,226.12435898632816 443.5249250053711,230.3834379863281 443.5249250053711,235.10638398632813 C446.1004560053711,235.10638398632813 448.0515370053711,235.10638398632813 450.9346240053711,235.1063689863281 z" id="svg_140" class=""/><path fill="#DC3F91" opacity="1.000000" stroke="none" d="M480.2068710053711,272.0619509863281 C480.8511580053711,272.0734559863281 481.0157090053711,272.10397298632813 481.4242170053711,272.1954349863281 C482.06502500537107,274.5342099863281 482.4619060053711,276.8120419863281 482.9634020053711,279.4601749863281 C478.9206470053711,279.8551939863281 474.7733990053711,279.89550798632814 470.6260600053711,279.90100098632814 C463.4559550053711,279.91052198632815 463.4559550053711,279.9014889863281 464.06545300537107,272.3723759863281 C469.4170760053711,272.05834998632815 474.5721360053711,272.0696409863281 480.2068710053711,272.0619509863281 z" id="svg_139" class=""/><path fill="#D4D4D2" opacity="1.000000" stroke="none" d="M480.6865770053711,272.0429379863281 C478.0664290053711,269.2980959863281 475.4462810053711,266.5532529863281 472.6672590053711,263.5268249863281 C473.8613200053711,260.65179398632813 475.4886400053711,260.5522459863281 477.5668870053711,262.5276789863281 C479.5767140053711,264.43807998632815 481.73329900537107,266.1941219863281 484.1604540053711,268.0831599863281 C483.6729660053711,269.34512298632814 482.8504560053711,270.5418399863281 481.60408800537107,271.9365229863281 C481.0157090053711,272.10397298632813 480.8511580053711,272.0734559863281 480.6865770053711,272.0429379863281 z" id="svg_138" class=""/><path fill="#EF5B9E" opacity="1.000000" stroke="none" d="M464.2619860053711,272.0470579863281 C464.0559920053711,271.00695798632813 463.8499980053711,269.9668879863281 463.5414050053711,268.6193539863281 C466.23363500537107,266.6343989863281 469.0284350053711,264.9568479863281 472.3246690053711,263.54385398632814 C475.4462810053711,266.5532529863281 478.0664290053711,269.2980959863281 480.2068710053711,272.0619509863281 C474.5721360053711,272.0696409863281 469.4170760053711,272.05834998632815 464.2619860053711,272.0470579863281 z" id="svg_137" class=""/><path fill="#DD4193" opacity="1.000000" stroke="none" d="M456.0370710053711,271.17675798632814 C456.5027080053711,279.89654498632814 456.5027080053711,279.89636198632815 447.9849170053711,279.89617898632815 C440.6559680053711,279.89602698632814 433.3269880053711,279.9005429863281 425.9980390053711,279.89508098632814 C419.55849500537107,279.8903199863281 419.5574570053711,279.8854979863281 419.5736620053711,273.57348598632814 C419.5757980053711,272.74072298632814 419.5953900053711,271.90805098632813 419.6465070053711,270.6400449863281 C431.5779950053711,274.03305098632813 443.5620350053711,274.5326539863281 456.0370710053711,271.17675798632814 z" id="svg_136" class=""/><path fill="#0499DC" opacity="1.000000" stroke="none" d="M486.07558400537107,267.0766299863281 C486.8194810053711,274.21160898632814 491.8983690053711,278.04824798632814 496.9696270053711,282.26235998632814 C502.3029100053711,286.69418298632814 507.0343860053711,291.88012698632815 511.8062360053711,296.9462279863281 C514.6289900053712,299.9430239863281 517.751579005371,301.60574298632815 522.3276900053711,301.1537779863281 C516.7168810053711,308.15454098632813 512.6634750053711,308.37377898632815 506.1721730053711,302.0479429863281 C498.66246800537107,294.72964498632814 491.1682970053711,287.39541598632815 483.26308400537107,279.57897998632814 C482.4619060053711,276.8120419863281 482.06502500537107,274.5342099863281 481.8480150053711,271.99749798632814 C482.8504560053711,270.5418399863281 483.6729660053711,269.34512298632814 484.4955060053711,268.1483759863281 C484.9372180053711,267.82723998632815 485.37889900537107,267.5061339863281 486.07558400537107,267.0766299863281 z" id="svg_135" class=""/><path fill="#D4D4D2" opacity="1.000000" stroke="none" d="M454.97908800537107,176.39479098632813 C469.2503890053711,182.05047598632814 479.1254810053711,191.49279798632813 483.9549790053711,205.85369898632814 C491.3734970053711,227.91305498632812 479.29708100537107,253.1882319863281 457.7064740053711,262.0156559863281 C429.5333180053711,273.53433198632814 396.7046740053711,256.51336698632815 392.8283000053711,224.7537989863281 C390.7305830053711,207.56671098632813 397.6594770053711,193.48942598632811 411.5119860053711,183.1302339863281 C424.5923080053711,173.34852598632813 439.1968000053711,172.00216698632812 454.97908800537107,176.39479098632813 M429.4124370053711,181.15898098632812 C410.5667650053711,186.83204698632812 398.7017140053711,201.46847498632815 398.6007920053711,219.41421498632815 C398.4710620053711,242.47869898632814 419.1729350053711,262.28692598632813 444.4743880053711,259.2710879863281 C468.3300700053711,256.42761198632815 484.7592090053711,233.37899798632816 478.8046800053711,210.20861798632814 C473.3116680053711,188.83409098632814 452.9476240053711,176.57925398632813 429.4124370053711,181.15898098632812 z" id="svg_134" class=""/><path fill="#FEDC3B" opacity="1.000000" stroke="none" d="M305.8197860053711,449.25967398632815 C304.7888260053711,446.39556898632804 302.8880540053711,443.1665339863282 303.7827990053711,441.22747798632804 C304.7243270053711,439.18704198632804 308.2950520053711,437.3229069863281 310.7936480053711,437.21859698632807 C321.2382430053711,436.78231798632805 331.7118450053711,436.99508698632815 342.1743390053711,437.0540469863281 C347.5440600053711,437.0843199863282 350.3897020053711,439.4067989863281 350.4539720053711,443.5605769863281 C350.5192180053711,447.78030398632814 347.6802290053711,450.24764998632804 342.4047470053711,450.27929698632806 C331.7762370053711,450.3430789863281 321.1468730053711,450.3297729863282 310.5184250053711,450.26092498632806 C309.07033500537113,450.2515559863282 307.6255110053711,449.7406619863282 305.8197860053711,449.25967398632815 z" id="svg_133" class=""/><path fill="#FEDC3B" opacity="1.000000" stroke="none" d="M436.5345690053711,450.3028869863281 C413.2110520053711,450.3005069863282 390.3860090053711,450.26071198632815 367.5613630053711,450.33096298632813 C363.6363140053711,450.3430479863282 360.7177960053711,448.59283398632806 360.2788310053711,444.9924009863281 C360.0184860053711,442.8569029863281 361.7106860053711,440.1693729863282 363.2045210053711,438.2623899863281 C363.9880290053711,437.2622069863281 366.2351610053711,437.08981298632807 367.8226850053711,437.08572398632805 C394.1461110053711,437.01809698632815 420.4698410053711,437.00845298632817 446.7933270053711,437.0612489863281 C451.6874620053711,437.07104498632816 454.5601120053711,439.63137798632806 454.62426000537107,443.60116598632817 C454.6911850053711,447.7383119863282 451.72582200537107,450.2147519863281 446.5295940053711,450.2907709863282 C443.3647690053711,450.3370969863281 440.1986920053711,450.3014829863282 436.5345690053711,450.3028869863281 z" id="svg_132" class=""/><path fill="#FEDC3B" opacity="1.000000" stroke="none" d="M302.7580490053711,472.96945198632807 C303.4291310053711,467.78839098632807 306.2506480053711,465.93438698632815 311.0350880053711,465.94415298632816 C349.5182420053711,466.0227969863281 388.0016100053711,465.97711198632805 426.4849170053711,465.99810798632814 C431.9954760053711,466.0010989863281 434.63301800537107,468.1512149863281 434.6979900053711,472.46072398632805 C434.7658920053711,476.96630898632816 432.0445180053711,479.19140598632816 426.2416920053711,479.1939999863282 C387.9249800053711,479.2111509863281 349.6081770053711,479.1640929863281 311.2916950053711,479.2543339863281 C306.8427660053711,479.26480098632805 303.8781200053711,477.83648698632805 302.7580490053711,472.96945198632807 z" id="svg_131" class=""/><path fill="#DC3F91" opacity="1.000000" stroke="none" d="M375.7245100053711,228.46752898632815 C378.7152020053711,228.39480598632815 381.5891340053711,228.7518159863281 384.8787160053711,229.12269598632815 C385.8256760053711,231.3393549863281 386.3569560053711,233.5421599863281 386.9486620053711,236.10690298632812 C385.8583910053711,236.57405098632813 384.70934300537107,236.74665798632816 383.5568470053711,236.7735599863281 C375.6682970053711,236.9576869863281 375.3869550053711,236.66894498632814 375.7245100053711,228.46752898632815 z" id="svg_130" class=""/><path fill="#DD4193" opacity="1.000000" stroke="none" d="M482.5964280053711,186.5120539863281 C488.1243210053711,185.83006298632813 493.7859420053711,185.4492189863281 499.8992540053711,185.05313098632814 C500.9347460053711,193.06460598632816 500.9347460053711,193.06286598632812 492.8139270053711,193.06707798632812 C491.3197860053711,193.06785598632814 489.8256150053711,193.08906598632814 487.8617170053711,193.1341549863281 C485.83803600537107,191.0494079863281 484.2841110053711,188.9313049863281 482.5964280053711,186.5120539863281 z" id="svg_129" class=""/><path fill="#DC3F91" opacity="1.000000" stroke="none" d="M375.7062000053711,185.45761098632812 C382.5054550053711,185.16601598632815 389.1971970053711,185.30676298632812 396.1884380053711,185.7293399863281 C394.9824750053711,188.2592619863281 393.4770130053711,190.50736998632811 391.6903920053711,192.9480899863281 C388.4550400053711,193.1178589863281 385.5008160053711,193.08132898632812 382.5465620053711,193.07485998632814 C375.4453960053711,193.05929598632815 375.4453960053711,193.0649869863281 375.7062000053711,185.45761098632812 z" id="svg_128" class=""/><path fill="#E95B9E" opacity="1.000000" stroke="none" d="M500.4233630053711,262.1311339863281 C498.1131210053711,262.2126769863281 495.8290330053711,261.7814639863281 493.1562420053711,261.3560789863281 C491.8890910053711,260.3818359863281 491.0514760053711,259.36126698632813 490.12563300537107,258.4281919863281 C483.8097760053711,252.0632779863281 483.8037950053711,252.06919898632816 488.3408430053711,244.26156598632815 C500.4674910053711,244.45785498632813 500.4680710053711,244.45785498632813 500.4651720053711,256.6204829863281 C500.4647750053711,258.2864379863281 500.4549790053711,259.9523929863281 500.4233630053711,262.1311339863281 z" id="svg_127" class=""/><path fill="#3B2C74" opacity="1.000000" stroke="none" d="M332.42482800537107,193.20324698632817 C343.6920090053711,192.9880829863281 354.6417470053711,193.04037498632812 366.0589220053711,193.08470198632813 C366.8594890053711,195.5014949863281 367.1926500053711,197.92626998632812 367.5117420053711,200.79318198632814 C362.4161000053711,200.9578699863281 357.3374250053711,200.54559298632813 352.2522810053711,200.4376529863281 C346.1346970053711,200.30786098632814 340.0115890053711,200.43688998632808 333.4663930053711,200.48840298632808 C332.7304000053711,198.17221098632814 332.41890700537107,195.82145698632814 332.42482800537107,193.20324698632817 z" id="svg_126" class=""/><path fill="#DE3E91" opacity="1.000000" stroke="none" d="M367.5102160053711,235.60287498632812 C355.8032150053711,236.00616498632814 344.1965560053711,235.97822598632808 332.1440660053711,235.83846998632816 C331.6454090053711,233.4659269863281 331.5926130053711,231.2051699863281 331.6232830053711,228.51827998632814 C333.9724350053711,228.42164598632814 336.24144700537107,229.0528719863281 338.5032880053711,229.02813698632815 C347.9601060053711,228.9246979863281 357.4147570053711,228.62431298632816 367.2685470053711,228.23599198632814 C367.6480940053711,230.44113198632812 367.62932600537107,232.80639598632808 367.5102160053711,235.60287498632812 z" id="svg_125" class=""/><path fill="#DE3E91" opacity="1.000000" stroke="none" d="M324.3770680053711,234.37457298632813 C323.0279160053711,235.26335098632813 321.6726610053711,236.19985998632814 320.31545300537107,236.20274398632813 C309.74214900537106,236.2253109863281 299.1684650053711,236.0682369863281 288.1562420053711,235.82925398632813 C287.6315690053711,233.75718698632812 287.54555500537106,231.82253998632814 287.5432210053711,229.46887198632817 C297.7666700053711,229.06011998632812 307.90659300537106,229.10217298632813 318.0460130053711,229.04820298632814 C319.6675640053711,229.0395659863281 321.2867660053711,228.60079998632813 323.3091660053711,228.19798298632816 C323.9308700053711,230.01998898632814 324.1504750053711,232.00488298632808 324.3770680053711,234.37457298632813 z" id="svg_124" class=""/><path fill="#E7569C" opacity="1.000000" stroke="none" d="M492.1458360053711,236.28434798632816 C494.8680340053711,224.46388198632815 495.3194810053711,212.70677198632814 490.6654890053711,200.74516298632813 C500.4629140053711,200.42504898632814 500.4610210053711,200.42504898632814 500.4752430053711,210.03768898632813 C500.4840930053711,216.0027619863281 500.4549480053711,221.9683529863281 500.52321600537107,227.9327849863281 C500.6167830053711,236.10931398632812 500.6494670053711,236.1089329863281 492.1458360053711,236.28434798632816 z" id="svg_123" class=""/><path fill="#EF5B9E" opacity="1.000000" stroke="none" d="M387.1743390053711,200.9155429863281 C385.3053510053711,209.92037998632816 383.2484970053711,218.93798798632815 384.9051440053711,228.70649698632815 C381.5891340053711,228.7518159863281 378.7152020053711,228.39480598632815 375.8413010053711,228.03778098632813 C375.7947920053711,220.89625598632813 375.9333720053711,213.7469019863281 375.6320110053711,206.61614998632814 C375.45290400537107,202.37750198632813 376.7198720053711,200.30306998632813 381.22686000537107,200.84237698632813 C383.0296250053711,201.05807498632817 384.8777390053711,200.89524798632812 387.1743390053711,200.9155429863281 z" id="svg_122" class=""/><path fill="#372B73" opacity="1.000000" stroke="none" d="M288.44533500537113,193.31286598632812 C299.59140800537114,192.96586598632814 310.5709610053711,193.00932298632813 322.00801800537107,192.9798579863281 C322.8139880053711,195.4246369863281 323.1625290053711,197.9423369863281 323.4895250053711,200.90719598632813 C311.8201520053711,201.30087298632816 300.1722490053711,201.24737598632817 288.0861740053711,201.3656919863281 C287.8582690053711,198.92608598632813 288.0685500053711,196.31469698632816 288.44533500537113,193.31286598632812 z" id="svg_121" class=""/><path fill="#E2AB2B" opacity="1.000000" stroke="none" d="M422.3018420053711,356.5310359863281 C417.1996080053711,356.8422239863281 412.3676680053711,356.90957598632815 407.0870590053711,357.07946798632815 C406.6483080053711,353.0577389863281 405.2055590053711,347.94262698632815 407.1285320053711,345.12319898632813 C408.6623760053711,342.87435898632816 414.2961040053711,343.40624998632813 418.1162340053711,342.73989898632817 C419.7314990053711,342.4581299863281 421.36284600537107,342.26885998632815 423.4472890053711,342.0032039863281 C429.9218980053711,347.0043339863281 429.4300160053711,352.27773998632813 422.3018420053711,356.5310359863281 z" id="svg_120" class=""/><path fill="#E2AB2B" opacity="1.000000" stroke="none" d="M366.4934920053711,356.7023619863281 C361.5906300053711,357.0502319863281 356.7247850053711,356.9288639863281 351.4281850053711,356.80938698632815 C343.6766280053711,352.36187698632807 342.9763720053711,348.3314209863281 348.75441700537107,342.04232798632813 C353.8203660053711,342.31347698632817 358.6104350053711,342.49603298632815 363.3225330053711,343.20050098632805 C364.5141220053711,343.3786619863281 366.2112660053711,345.12295498632807 366.3686140053711,346.31951898632815 C366.79665400537107,349.5748599863282 366.5248950053711,352.9222409863281 366.4934920053711,356.7023619863281 z" id="svg_119" class=""/><path fill="#DE3E91" opacity="1.000000" stroke="none" d="M331.6340560053711,184.52511598632816 C333.96715500537107,184.43438698632815 336.21028900537107,185.0246429863281 338.4595570053711,185.04923998632813 C347.8756640053711,185.15214498632815 357.2936020053711,185.08540298632812 367.1899030053711,185.06759598632812 C367.4120100053711,187.51966898632816 367.1550520053711,189.98495498632815 366.24480400537107,192.77145398632808 C354.6417470053711,193.04037498632812 343.6920090053711,192.9880829863281 332.7422410053711,192.93579098632813 C332.3438030053711,190.27250698632815 331.9453660053711,187.6092069863281 331.6340560053711,184.52511598632816 z" id="svg_118" class=""/><path fill="#DC3F91" opacity="1.000000" stroke="none" d="M287.5343550053711,185.47111498632813 C299.3445360053711,185.06268298632813 311.0751420053711,185.06771898632815 323.2968980053711,185.06283598632814 C323.46620900537107,187.46505698632814 323.1443410053711,189.87716698632812 322.1864850053711,192.67102098632813 C310.5709610053711,193.00932298632813 299.59140800537114,192.96586598632814 288.61183900537105,192.92240898632815 C288.2261580053711,190.57646198632813 287.8404770053711,188.23052998632812 287.5343550053711,185.47111498632813 z" id="svg_117" class=""/><path fill="#DE3E91" opacity="1.000000" stroke="none" d="M367.4952320053711,279.3320009863281 C356.1688460053711,279.74380498632814 344.9409410053711,279.8175349863281 333.2695540053711,279.89715598632813 C332.3961110053711,277.5620119863281 331.9661790053711,275.2209469863281 331.6147080053711,272.46151698632815 C343.36516600537107,272.0561829863281 355.0371320053711,272.0692439863281 367.1880420053711,272.06970198632814 C367.6425400053711,274.3693539863281 367.6181260053711,276.6816099863281 367.4952320053711,279.3320009863281 z" id="svg_116" class=""/><path fill="#372B73" opacity="1.000000" stroke="none" d="M407.3791730053711,372.0573429863282 C406.7787400053711,367.3845209863282 406.7033920053711,362.7376399863281 407.0818710053711,357.53384398632807 C412.3676680053711,356.90957598632815 417.1996080053711,356.8422239863281 422.0315480053711,356.7748719863282 C423.4772570053711,358.1102599863282 425.2741320053711,359.21990998632805 426.3041610053711,360.82244898632814 C429.6708600053711,366.0603939863281 426.5694810053711,371.8550719863281 420.3683090053711,372.0634159863282 C416.2180710053711,372.2029109863281 412.0592580053711,372.0856929863281 407.3791730053711,372.0573429863282 z" id="svg_115" class=""/><path fill="#DC3F91" opacity="1.000000" stroke="none" d="M375.7179180053711,272.43389898632813 C387.6526720053711,272.03173798632815 399.4767990053711,272.0430299863281 411.7404400053711,272.0341799863281 C412.9403310053711,279.73736598632814 412.7917710053711,279.90493798632815 405.1469960053711,279.9042049863281 C395.9974290053711,279.9033809863281 386.8478930053711,279.9007259863281 377.2535630053711,279.9085999863281 C376.4082870053711,277.5613399863281 376.0077740053711,275.2043459863281 375.7179180053711,272.43389898632813 z" id="svg_114" class=""/><path fill="#422D75" opacity="1.000000" stroke="none" d="M367.6285630053711,244.5458979863281 C358.8023610053711,244.66917398632813 350.0159530053711,244.31784098632812 341.2263720053711,244.19695998632812 C338.2857280053711,244.15650898632816 335.3369980053711,244.70448298632812 332.0050280053711,245.1485599863281 C331.6145250053711,242.43569898632813 331.6109850053711,239.55776998632814 332.0986560053711,236.31506298632814 C344.1965560053711,235.97822598632808 355.8032150053711,236.00616498632814 367.4098430053711,236.0341029863281 C367.4955980053711,238.7431639863281 367.5813520053711,241.45222498632813 367.6285630053711,244.5458979863281 z" id="svg_113" class=""/><path fill="#422D75" opacity="1.000000" stroke="none" d="M323.7233510053711,244.8861079863281 C322.1520000053711,244.82826198632813 320.8945540053711,244.1776119863281 319.6466900053711,244.1955259863281 C309.2056810053711,244.34550498632814 298.7664410053711,244.6183929863281 287.97003900537106,245.07842998632816 C287.6144330053711,242.41760298632812 287.6154710053711,239.53256198632812 288.1057050053711,236.30709798632813 C299.1684650053711,236.0682369863281 309.74214900537106,236.2253109863281 320.31545300537107,236.20274398632813 C321.6726610053711,236.19985998632814 323.0279160053711,235.26335098632813 324.3840560053711,234.7593379863281 C324.26995100537107,238.04060398632816 324.1558150053711,241.32189898632816 323.7233510053711,244.8861079863281 z" id="svg_112" class=""/><path fill="#382B73" opacity="1.000000" stroke="none" d="M366.4063340053711,372.6205139863282 C366.4608080053711,373.0849299863281 366.0819020053711,373.0967709863281 365.8943710053711,373.12206998632814 C361.6364360053711,372.7961729863282 357.5663680053711,372.1799009863281 353.4955980053711,372.1750789863281 C350.0465620053711,372.17095898632806 347.1993940053711,371.6496889863281 346.0585560053711,367.99328598632815 C345.0272140053711,364.68771398632816 344.9543990053711,361.4938349863281 348.0644450053711,359.05798298632817 C348.8391040053711,358.4512939863282 349.5645370053711,357.7817689863282 351.08571600537107,356.9743039863281 C356.7247850053711,356.9288639863281 361.5906300053711,357.0502319863281 366.45650500537107,357.1716309863282 C366.4216230053711,362.1664429863281 366.3867420053711,367.1612549863281 366.4063340053711,372.6205139863282 z" id="svg_111" class=""/><path fill="#DC3F91" opacity="1.000000" stroke="none" d="M323.4671860053711,279.2299499863281 C312.1175000053711,279.68371598632814 300.8849110053711,279.8010249863281 289.20272100537113,279.9379579863281 C288.22023800537113,277.1897579863281 287.6873550053711,274.42193598632815 287.4137190053711,271.38949598632814 C290.07653000537107,271.4496459863281 292.4835590053711,272.0736999863281 294.8830950053711,272.0462339863281 C304.2152330053711,271.93930098632813 313.5450060053711,271.62548798632815 323.2726060053711,271.22415198632814 C323.6411670053711,273.67092898632814 323.61275500537107,276.28219598632813 323.4671860053711,279.2299499863281 z" id="svg_110" class=""/><path fill="#E95B9E" opacity="1.000000" stroke="none" d="M456.2310410053711,167.81182898632812 C444.2211840053711,165.3651579863281 432.33803600537107,165.0133819863281 420.19286300537107,169.2407839863281 C419.5408250053711,154.72390698632813 418.5274280053711,157.3581239863281 431.3479840053711,157.14298998632813 C437.6704330053711,157.03691098632817 444.01403000537107,157.41708398632812 450.3146290053711,157.0311739863281 C455.2977520053711,156.72598298632812 456.9785080053711,158.6826929863281 456.3579030053711,163.36088598632813 C456.18410500537107,164.67102098632813 456.3042220053711,166.02015698632812 456.2310410053711,167.81182898632812 z" id="svg_109" class=""/><path fill="#372B73" opacity="1.000000" stroke="none" d="M323.3500900053711,279.5664059863281 C323.4135670053711,283.70242298632814 323.4243390053711,287.84011798632815 323.5582500053711,291.9738459863281 C323.6543810053711,294.94152798632814 322.30489300537107,296.13195798632813 319.3781660053711,296.1097409863281 C310.10797900537113,296.0394289863281 300.83297000537107,296.21581998632814 291.5705950053711,295.9378969863281 C290.2068410053711,295.89697298632814 287.85253100537113,293.99346898632814 287.7595440053711,292.8100589863281 C287.4403000053711,288.7473759863281 287.9226300053711,284.6216739863281 288.8758770053711,280.21917698632814 C300.8849110053711,279.8010249863281 312.1175000053711,279.68371598632814 323.3500900053711,279.5664059863281 z" id="svg_108" class=""/><path fill="#372B73" opacity="1.000000" stroke="none" d="M367.3967210053711,279.67007398632813 C367.4463120053711,283.47415198632814 367.3694080053711,287.2853089863281 367.5823590053711,291.0801999863281 C367.7809680053711,294.6197199863281 366.5575490053711,296.21710198632815 362.7849660053711,296.1425479863281 C354.0185170053711,295.96932998632815 345.2443160053711,295.97793598632813 336.4774700053711,296.1405029863281 C332.8710250053711,296.20739698632815 331.2170940053711,294.9560549863281 331.5232770053711,291.25369298632813 C331.8202130053711,287.6636659863281 331.9509200053711,284.05984498632813 332.9338610053711,280.17666598632815 C344.9409410053711,279.8175349863281 356.1688460053711,279.74380498632814 367.3967210053711,279.67007398632813 z" id="svg_107" class=""/><path fill="#E5AC29" opacity="1.000000" stroke="none" d="M406.4289170053711,387.2992249863281 C403.5424730053711,392.4463499863282 399.4323350053711,394.48620598632806 393.8935470053711,394.2220149863281 C388.5776600053711,393.9685059863282 383.2396160053711,394.09985398632807 377.9129560053711,394.17642198632814 C373.1788860053711,394.24441498632814 369.5012130053711,392.5491939863282 366.9261700053711,388.06259198632813 C366.39504200537107,383.2464599863281 366.1373520053711,378.6442569863282 365.9807660053711,373.5693969863281 C366.0819020053711,373.0967709863281 366.4608080053711,373.0849299863281 366.4608080053711,373.0849299863281 C369.0588300053711,378.5218509863281 373.5258100053711,380.3874819863281 379.3259810053711,380.1412349863281 C384.1153180053711,379.93789698632804 388.9408490053711,379.8198239863282 393.7127910053711,380.17227198632804 C399.39177700537107,380.59167498632814 403.2140430053711,378.18884298632815 406.1960070053711,373.28097498632815 C406.4551620053711,377.66241498632814 406.4643780053711,382.26168798632807 406.4289170053711,387.2992249863281 z" id="svg_106" class=""/><path fill="#3A2C72" opacity="1.000000" stroke="none" d="M406.3842090053711,387.7374879863281 C406.4370960053711,391.55978398632806 406.5711590053711,395.3830259863281 406.52459000537107,399.2041319863281 C406.4461900053711,405.6399229863282 401.9960560053711,410.0142819863281 395.4815600053711,410.07784998632815 C389.49651300537107,410.13629198632816 383.5098800053711,410.14233398632814 377.5249860053711,410.07641598632813 C370.80498500537107,410.0024109863282 366.5514140053711,405.5862119863282 366.5441510053711,398.78588898632813 C366.5405810053711,395.46081498632816 366.5734480053711,392.13571198632815 366.8947370053711,388.5435489863281 C369.5012130053711,392.5491939863282 373.1788860053711,394.24441498632814 377.9129560053711,394.17642198632814 C383.2396160053711,394.09985398632807 388.5776600053711,393.9685059863282 393.8935470053711,394.2220149863281 C399.4323350053711,394.48620598632806 403.5424730053711,392.4463499863282 406.3842090053711,387.7374879863281 z" id="svg_105" class=""/><path fill="#EF5B9E" opacity="1.000000" stroke="none" d="M412.0839460053711,266.53585798632815 C412.2877730053711,268.2298579863281 412.2865520053711,269.6906429863281 411.7931140053711,271.6029049863281 C399.4767990053711,272.0430299863281 387.6526720053711,272.03173798632815 375.8285450053711,272.0204469863281 C375.7877430053711,264.4286799863281 375.8463670053711,256.8345339863281 375.6644210053711,249.2461399863281 C375.5726550053711,245.4192349863281 377.0293200053711,243.79739398632813 380.9301070053711,244.1184849863281 C383.7158430053711,244.34777798632808 386.5384450053711,244.12901298632812 389.7845690053711,244.06596398632814 C395.5341720053711,253.3035279863281 402.5208050053711,260.9554749863281 412.0839460053711,266.53585798632815 z" id="svg_104" class=""/><path fill="#1DACE3" opacity="1.000000" stroke="none" d="M523.704430005371,300.8641359863281 C523.5616380053712,301.1881409863281 523.162468005371,301.1771239863281 522.5273360053711,301.1505429863281 C517.751579005371,301.60574298632815 514.6289900053712,299.9430239863281 511.8062360053711,296.9462279863281 C507.0343860053711,291.88012698632815 502.3029100053711,286.69418298632814 496.9696270053711,282.26235998632814 C491.8983690053711,278.04824798632814 486.8194810053711,274.21160898632814 486.3305890053711,266.9682619863281 C488.3174360053711,265.25128198632814 490.3042830053711,263.5343019863281 492.9180530053711,261.58377098632815 C495.8290330053711,261.7814639863281 498.1131210053711,262.2126769863281 500.3972090053711,262.64388998632813 C508.0153120053711,270.2297669863281 515.6382060053711,277.8108219863281 523.2499620053711,285.4031069863281 C529.2094350053711,291.34725998632814 529.3182910053711,294.2754519863281 523.704430005371,300.8641359863281 z" id="svg_103" class=""/><path fill="#EE5B9D" opacity="1.000000" stroke="none" d="M482.4627000053711,186.21089198632814 C476.5345690053711,181.4394069863281 470.6064680053711,176.66790798632815 464.4881210053711,171.61115998632812 C462.2885970053711,157.29820298632814 462.4242170053711,157.13859598632814 476.3507920053711,157.1385649863281 C482.6526110053711,157.13853498632812 488.9594350053711,157.29009998632813 495.2543560053711,157.0816499863281 C499.07738500537107,156.9550779863281 500.6450730053711,158.24360698632813 500.5174790053711,162.2229919863281 C500.2837450053711,169.5124819863281 500.4415820053711,176.81452898632813 499.9418560053711,184.58987398632814 C493.7859420053711,185.4492189863281 488.1243210053711,185.83006298632813 482.4627000053711,186.21089198632814 z" id="svg_102" class=""/><path fill="#ED5A9D" opacity="1.000000" stroke="none" d="M412.3811870053711,172.2252659863281 C407.3068160053711,177.05023198632813 402.1837690053711,181.36823998632815 396.4748150053711,185.5668789863281 C389.1971970053711,185.30676298632812 382.5054550053711,185.16601598632815 375.8137130053711,185.02526898632811 C375.7925640053711,177.39575198632815 375.7769390053711,169.76623498632813 375.7479480053711,162.13674898632814 C375.7340930053711,158.4919129863281 377.1843800053711,156.9136659863281 381.1591420053711,157.04458598632812 C389.94371800537107,157.33389298632812 398.7460250053711,157.2333069863281 407.5375900053711,157.08422898632813 C410.9807050053711,157.02584798632813 412.4036480053711,158.41708398632812 412.32833100537107,161.76333598632812 C412.2536540053711,165.0799409863281 412.3250960053711,168.39984098632812 412.3811870053711,172.2252659863281 z" id="svg_101" class=""/><path fill="#EE5A9D" opacity="1.000000" stroke="none" d="M323.4050220053711,245.1690059863281 C323.5003280053711,253.4880979863281 323.5956040053711,261.8072199863281 323.2832870053711,270.75747698632813 C313.5450060053711,271.62548798632815 304.2152330053711,271.93930098632813 294.8830950053711,272.0462339863281 C292.4835590053711,272.0736999863281 290.07653000537107,271.4496459863281 287.6729510053711,271.1248779863281 C287.6559980053711,262.82098398632814 287.6390610053711,254.5171199863281 287.9743880053711,245.53372198632815 C298.7664410053711,244.6183929863281 309.2056810053711,244.34550498632814 319.6466900053711,244.1955259863281 C320.8945540053711,244.1776119863281 322.1520000053711,244.82826198632813 323.4050220053711,245.1690059863281 z" id="svg_100" class=""/></g></svg>