<?xml version="1.0" ?><svg id="Layer_1" style="enable-background:new 0 0 65 65;" version="1.1" viewBox="0 0 65 65" xml:space="preserve" xmlns="http://www.w3.org/2000/svg" xmlns:xlink="http://www.w3.org/1999/xlink"><style type="text/css">
	.st0{fill:#1C1F20;}
</style><g><path class="st0" d="M58.5,62.8h-16c-0.4,0-0.8,0.3-0.8,0.8s0.3,0.8,0.8,0.8h16c0.4,0,0.8-0.3,0.8-0.8S58.9,62.8,58.5,62.8z"/><path class="st0" d="M64.5,62.8h-2c-0.4,0-0.8,0.3-0.8,0.8s0.3,0.8,0.8,0.8h2c0.4,0,0.8-0.3,0.8-0.8S64.9,62.8,64.5,62.8z"/><path class="st0" d="M30.5,6.3h13c0.4,0,0.8-0.3,0.8-0.8s-0.3-0.8-0.8-0.8h-13c-0.4,0-0.8,0.3-0.8,0.8S30.1,6.3,30.5,6.3z"/><path class="st0" d="M47.5,6.3h1c0.4,0,0.8-0.3,0.8-0.8s-0.3-0.8-0.8-0.8h-1c-0.4,0-0.8,0.3-0.8,0.8S47.1,6.3,47.5,6.3z"/><path class="st0" d="M0.5,4.3h1.3v1.3c0,0.4,0.3,0.8,0.8,0.8s0.8-0.3,0.8-0.8V4.3h1.3c0.4,0,0.8-0.3,0.8-0.8S4.9,2.8,4.5,2.8H3.3   V1.5c0-0.4-0.3-0.8-0.8-0.8S1.8,1.1,1.8,1.5v1.3H0.5c-0.4,0-0.8,0.3-0.8,0.8S0.1,4.3,0.5,4.3z"/><path class="st0" d="M63.3,59.5v-50c0-0.4-0.3-0.8-0.8-0.8h-62c-0.4,0-0.8,0.3-0.8,0.8v50c0,0.4,0.3,0.8,0.8,0.8h62   C62.9,60.3,63.3,59.9,63.3,59.5z M61.8,16.8H23.3v-6.5h38.5V16.8z M1.3,10.3h20.5v6.5H1.3V10.3z M61.8,58.8H1.3V18.3h60.5V58.8z"/><path class="st0" d="M3.8,21.5v34c0,0.4,0.3,0.8,0.8,0.8h54c0.4,0,0.8-0.3,0.8-0.8v-34c0-0.4-0.3-0.8-0.8-0.8h-54   C4.1,20.8,3.8,21.1,3.8,21.5z M5.3,22.3h52.5v32.5H5.3V22.3z"/><circle class="st0" cx="6.5" cy="13.5" r="1"/><circle class="st0" cx="11.5" cy="13.5" r="1"/><circle class="st0" cx="16.5" cy="13.5" r="1"/><path class="st0" d="M27.5,14.3h30c0.4,0,0.8-0.3,0.8-0.8s-0.3-0.8-0.8-0.8h-30c-0.4,0-0.8,0.3-0.8,0.8S27.1,14.3,27.5,14.3z"/><path class="st0" d="M42.5,29.8c-2.6,0-4.8,2.2-4.8,4.8c0,0.4,0.3,0.8,0.8,0.8s0.8-0.3,0.8-0.8c0-1.8,1.5-3.3,3.3-3.3   c0.4,0,0.8-0.3,0.8-0.8S43,29.8,42.5,29.8z"/><path class="st0" d="M49.3,40.2c2.9-3.5,2.7-8.6-0.5-11.9c-3.4-3.4-9-3.4-12.4,0c-0.4,0.4-0.8,0.9-1.2,1.4H8.5   c-0.4,0-0.8,0.3-0.8,0.8v8c0,0.4,0.3,0.8,0.8,0.8h26.6c0.3,0.5,0.7,1,1.2,1.5c1.7,1.7,4,2.6,6.2,2.6c2,0,4-0.7,5.7-2.1L54,47   c0.1,0.1,0.3,0.2,0.5,0.2s0.4-0.1,0.5-0.2c0.3-0.3,0.3-0.8,0-1.1L49.3,40.2z M9.3,37.8v-6.5h25.1c-0.8,2.1-0.8,4.4,0,6.5H9.3z    M37.4,39.7c-2.8-2.8-2.8-7.5,0-10.3c1.4-1.4,3.3-2.1,5.2-2.1s3.7,0.7,5.2,2.1c2.8,2.8,2.8,7.5,0,10.3   C44.9,42.5,40.2,42.5,37.4,39.7z"/><path class="st0" d="M31.5,43.8h-16c-0.4,0-0.8,0.3-0.8,0.8s0.3,0.8,0.8,0.8h16c0.4,0,0.8-0.3,0.8-0.8S31.9,43.8,31.5,43.8z"/><path class="st0" d="M28.5,47.8h-10c-0.4,0-0.8,0.3-0.8,0.8s0.3,0.8,0.8,0.8h10c0.4,0,0.8-0.3,0.8-0.8S28.9,47.8,28.5,47.8z"/></g></svg>