<?xml version="1.0" ?>
<svg data-name="Capa 1" id="Capa_1" viewBox="0 0 512 512" xmlns="http://www.w3.org/2000/svg">

	<style type="text/css">.st0{fill:#1C1F20;}</style>
	<g>

<path class="st0" d="M183.59,306.69a104,104,0,0,1-21.48-2.24,6,6,0,0,1-4.24-3.45L144.62,271,112,274.5a6,6,0,0,1-5.1-1.95,102.48,102.48,0,0,1-21.51-37.21,6,6,0,0,1,.86-5.39l19.41-26.51-19.41-26.5a6,6,0,0,1-.86-5.4,102.52,102.52,0,0,1,21.51-37.2,6,6,0,0,1,5.1-2l32.63,3.55,13.25-30a6,6,0,0,1,4.25-3.45,104.29,104.29,0,0,1,42.95,0,6,6,0,0,1,4.25,3.45l13.25,30.05,32.62-3.55a6,6,0,0,1,5.11,2,102.66,102.66,0,0,1,21.51,37.2,6,6,0,0,1-.87,5.4l-19.4,26.5L280.94,230a6,6,0,0,1,.87,5.39,102.62,102.62,0,0,1-21.51,37.21,6,6,0,0,1-5.11,1.95L222.57,271,209.32,301a6,6,0,0,1-4.25,3.45A103.88,103.88,0,0,1,183.59,306.69Zm-16-13.4a92.57,92.57,0,0,0,32,0l13.76-31.2a6,6,0,0,1,6.14-3.55l33.88,3.69a90.74,90.74,0,0,0,16-27.72L249.26,207a6,6,0,0,1,0-7.09l20.15-27.52a90.62,90.62,0,0,0-16-27.72l-33.88,3.68a6,6,0,0,1-6.14-3.54L199.6,113.6a92.57,92.57,0,0,0-32,0l-13.75,31.2a6,6,0,0,1-6.14,3.54l-33.88-3.68a90.22,90.22,0,0,0-16,27.72l20.14,27.52a6,6,0,0,1,0,7.09L97.78,234.51a90.33,90.33,0,0,0,16,27.72l33.88-3.69a6,6,0,0,1,6.14,3.55Z"/>
<path class="st0" d="M183.59,246.4a43,43,0,1,1,43-43A43,43,0,0,1,183.59,246.4Zm0-73.91a31,31,0,1,0,31,30.95A31,31,0,0,0,183.59,172.49Z"/>
<path class="st0" d="M353.54,250.29a77.14,77.14,0,0,1-16-1.67,6,6,0,0,1-4.25-3.45l-9.17-20.8-22.58,2.46a6,6,0,0,1-5.1-2,76.18,76.18,0,0,1-16-27.69,6,6,0,0,1,.87-5.39l13.42-18.34-13.42-18.34a6,6,0,0,1-.87-5.4,76.26,76.26,0,0,1,16-27.69,6,6,0,0,1,5.1-1.94l22.58,2.45,9.17-20.79a6,6,0,0,1,4.25-3.45,77.52,77.52,0,0,1,32,0,6,6,0,0,1,4.24,3.45l9.17,20.79,22.58-2.45a6,6,0,0,1,5.11,1.94,76.38,76.38,0,0,1,16,27.69,6,6,0,0,1-.86,5.4l-13.43,18.34,13.43,18.34a6,6,0,0,1,.86,5.39,76.3,76.3,0,0,1-16,27.69,6,6,0,0,1-5.11,2l-22.58-2.46-9.17,20.8a6,6,0,0,1-4.24,3.45A77.28,77.28,0,0,1,353.54,250.29ZM343,237.43a65.21,65.21,0,0,0,21.05,0l9.67-21.92a6,6,0,0,1,6.13-3.54l23.81,2.59a64.25,64.25,0,0,0,10.54-18.22L400.05,177a6,6,0,0,1,0-7.09l14.16-19.34a64.06,64.06,0,0,0-10.54-18.21l-23.81,2.58a6,6,0,0,1-6.13-3.54l-9.67-21.92a65.78,65.78,0,0,0-21.05,0l-9.66,21.92a6,6,0,0,1-6.14,3.54l-23.81-2.58a64.3,64.3,0,0,0-10.54,18.21L307,169.91a6,6,0,0,1,0,7.09l-14.16,19.34a64.49,64.49,0,0,0,10.54,18.22L327.21,212a6,6,0,0,1,6.14,3.54Z"/>
<path class="st0" d="M353.54,206.38a32.92,32.92,0,1,1,32.91-32.92A33,33,0,0,1,353.54,206.38Zm0-53.84a20.92,20.92,0,1,0,20.91,20.92A20.94,20.94,0,0,0,353.54,152.54Z"/>
<path class="st0" d="M294.73,408.3a77.21,77.21,0,0,1-16-1.67,6,6,0,0,1-4.24-3.45l-9.17-20.79-22.58,2.45a6,6,0,0,1-5.1-1.95,76.22,76.22,0,0,1-16-27.68,6,6,0,0,1,.86-5.4l13.43-18.34-13.43-18.34a6,6,0,0,1-.86-5.4,76.26,76.26,0,0,1,16-27.69,6,6,0,0,1,5.1-1.94l22.58,2.45,9.17-20.79a6,6,0,0,1,4.24-3.45,77.57,77.57,0,0,1,32,0,6,6,0,0,1,4.24,3.45l9.17,20.79,22.58-2.45a6,6,0,0,1,5.1,1.94,76.26,76.26,0,0,1,16,27.69,6,6,0,0,1-.87,5.4l-13.42,18.34L367,349.81a6,6,0,0,1,.87,5.4,76.22,76.22,0,0,1-16,27.68,6,6,0,0,1-5.1,1.95l-22.58-2.45L315,403.18a6,6,0,0,1-4.24,3.45A77.31,77.31,0,0,1,294.73,408.3Zm-10.52-12.85a65.78,65.78,0,0,0,21.05,0l9.66-21.92a6,6,0,0,1,6.14-3.55l23.81,2.59a64.11,64.11,0,0,0,10.54-18.22L341.25,335a6,6,0,0,1,0-7.09l14.16-19.33a64,64,0,0,0-10.54-18.22L321.06,293a6,6,0,0,1-6.14-3.55l-9.66-21.92a65.78,65.78,0,0,0-21.05,0l-9.66,21.92a6,6,0,0,1-6.14,3.55l-23.81-2.59a64,64,0,0,0-10.54,18.22l14.16,19.33a6,6,0,0,1,0,7.09l-14.16,19.34a64.11,64.11,0,0,0,10.54,18.22L268.41,370a6,6,0,0,1,6.14,3.54Z"/>
<path class="st0" d="M294.73,364.39a32.92,32.92,0,1,1,32.92-32.92A33,33,0,0,1,294.73,364.39Zm0-53.84a20.92,20.92,0,1,0,20.92,20.92A20.94,20.94,0,0,0,294.73,310.55Z"/>
</g>
</svg>